<?xml version="1.0" encoding="UTF-8"?>
<!DOCTYPE svg PUBLIC "-//W3C//DTD SVG 1.1//EN" "http://www.w3.org/Graphics/SVG/1.1/DTD/svg11.dtd">
<svg xmlns="http://www.w3.org/2000/svg" version="1.1" width="380px" height="200px" viewBox="0 70 630 100" style="shape-rendering:geometricPrecision; text-rendering:geometricPrecision; image-rendering:optimizeQuality; fill-rule:evenodd; clip-rule:evenodd" >
<g><path style="opacity:1" fill="#fdfdfe" d="M -0.5,-0.5 C 206.833,-0.5 414.167,-0.5 621.5,-0.5C 621.5,61.1667 621.5,122.833 621.5,184.5C 414.167,184.5 206.833,184.5 -0.5,184.5C -0.5,122.833 -0.5,61.1667 -0.5,-0.5 Z"/></g>
<g><path style="opacity:1" fill="#0743a4" d="M 466.5,3.5 C 493.464,1.99769 510.964,13.9977 519,39.5C 520.697,50.0267 519.197,60.0267 514.5,69.5C 535.676,93.9584 538.176,120.292 522,148.5C 504.074,170.586 481.241,178.086 453.5,171C 427.439,160.723 413.772,141.556 412.5,113.5C 414.152,83.3376 429.486,63.8376 458.5,55C 467.829,53.0507 477.163,53.0507 486.5,55C 493.77,57.3629 500.77,60.1962 507.5,63.5C 513.131,46.2384 509.131,31.7384 495.5,20C 477.273,9.56708 460.773,11.7337 446,26.5C 441.017,34.1141 438.017,42.4475 437,51.5C 434.925,53.6483 432.592,53.9817 430,52.5C 427.699,34.0804 434.533,19.9138 450.5,10C 455.585,6.92348 460.918,4.75681 466.5,3.5 Z"/></g>
<g><path style="opacity:1" fill="#070707" d="M 191.5,67.5 C 190.512,72.6405 190.179,77.9738 190.5,83.5C 198.167,83.5 205.833,83.5 213.5,83.5C 213.5,87.8333 213.5,92.1667 213.5,96.5C 206.167,96.5 198.833,96.5 191.5,96.5C 191.5,116.5 191.5,136.5 191.5,156.5C 186.5,156.5 181.5,156.5 176.5,156.5C 176.5,136.5 176.5,116.5 176.5,96.5C 172.167,96.5 167.833,96.5 163.5,96.5C 163.5,92.8333 163.5,89.1667 163.5,85.5C 167.807,84.6734 172.14,84.0067 176.5,83.5C 176.334,77.1579 176.5,70.8246 177,64.5C 182.774,45.9451 194.941,39.9451 213.5,46.5C 213.5,50.1667 213.5,53.8333 213.5,57.5C 208.537,56.5036 203.537,56.3369 198.5,57C 193.935,59.0561 191.602,62.5561 191.5,67.5 Z"/></g>
<g><path style="opacity:1" fill="#87e3f4" d="M 467.5,74.5 C 498.69,76.1841 512.857,92.5175 510,123.5C 501.524,146.112 485.357,155.279 461.5,151C 440.648,142.472 431.814,126.972 435,104.5C 439.991,88.0035 450.824,78.0035 467.5,74.5 Z"/></g>
<g><path style="opacity:1" fill="#060606" d="M 109.5,81.5 C 119.31,80.8254 127.81,83.8254 135,90.5C 135.931,88.5405 136.764,86.5405 137.5,84.5C 141.783,83.5078 146.116,83.1744 150.5,83.5C 150.5,107.833 150.5,132.167 150.5,156.5C 146.167,156.5 141.833,156.5 137.5,156.5C 137.731,148.142 135.398,146.976 130.5,153C 108.248,163.137 91.4151,157.304 80,135.5C 73.1545,115.694 77.9878,99.5272 94.5,87C 99.2992,84.2375 104.299,82.4042 109.5,81.5 Z"/></g>
<g><path style="opacity:1" fill="#060606" d="M 248.5,81.5 C 272.038,79.5344 285.871,90.201 290,113.5C 290.499,117.821 290.666,122.154 290.5,126.5C 272.488,126.167 254.488,126.5 236.5,127.5C 242.215,141.361 252.549,146.861 267.5,144C 272.127,142.18 276.461,140.18 280.5,138C 283.35,140.682 286.016,143.516 288.5,146.5C 274.869,158.377 259.536,161.21 242.5,155C 223.035,143.283 216.535,126.45 223,104.5C 228.255,93.071 236.755,85.4043 248.5,81.5 Z"/></g>
<g><path style="opacity:1" fill="#040404" d="M 330.5,81.5 C 341.143,80.4293 349.643,84.096 356,92.5C 368.279,78.5059 381.279,77.8393 395,90.5C 396.941,94.0477 398.607,97.7143 400,101.5C 400.5,119.83 400.667,138.164 400.5,156.5C 395.833,156.5 391.167,156.5 386.5,156.5C 386.667,139.497 386.5,122.497 386,105.5C 383.1,96.4639 376.933,93.2972 367.5,96C 364.538,98.2866 362.371,101.12 361,104.5C 360.5,121.83 360.333,139.163 360.5,156.5C 355.833,156.5 351.167,156.5 346.5,156.5C 346.667,139.497 346.5,122.497 346,105.5C 344.19,98.5221 339.69,95.1888 332.5,95.5C 325.435,95.7247 321.268,99.3913 320,106.5C 319.5,123.163 319.333,139.83 319.5,156.5C 314.833,156.5 310.167,156.5 305.5,156.5C 305.5,132.167 305.5,107.833 305.5,83.5C 309.555,83.1758 313.555,83.5091 317.5,84.5C 318.333,86.1667 319.167,87.8333 320,89.5C 322.94,85.9632 326.44,83.2965 330.5,81.5 Z"/></g>
<g><path style="opacity:1" fill="#070707" d="M 30.5,82.5 C 41.7628,80.3841 51.5961,83.0507 60,90.5C 61.8895,93.1116 63.3895,95.9449 64.5,99C 64.0946,99.9454 63.428,100.612 62.5,101C 58.9495,101.784 55.4495,102.617 52,103.5C 47.9682,95.9631 41.8015,93.4631 33.5,96C 26.4563,99.5296 25.7896,103.863 31.5,109C 40.6636,111.875 49.6636,115.208 58.5,119C 68.3665,126.361 70.1998,135.528 64,146.5C 51.1956,159.777 36.6956,161.944 20.5,153C 16.5458,149.883 13.5458,146.05 11.5,141.5C 15.2211,138.973 19.2211,136.973 23.5,135.5C 29.7709,144.829 38.1043,146.995 48.5,142C 53.7413,137.537 53.7413,133.204 48.5,129C 39.6305,126.599 30.9638,123.599 22.5,120C 11.4772,112.269 9.64385,102.769 17,91.5C 20.8823,87.4293 25.3823,84.4293 30.5,82.5 Z"/></g>
<g><path style="opacity:1" fill="#8a8a8a" d="M 191.5,67.5 C 191.5,72.5 191.5,77.5 191.5,82.5C 199.019,82.175 206.352,82.5084 213.5,83.5C 205.833,83.5 198.167,83.5 190.5,83.5C 190.179,77.9738 190.512,72.6405 191.5,67.5 Z"/></g>
<g><path style="opacity:1" fill="#040404" d="M 531.5,84.5 C 536.901,83.1752 542.401,83.1752 548,84.5C 555.738,103.217 563.572,121.884 571.5,140.5C 579.604,121.957 587.437,103.29 595,84.5C 600.446,83.1941 605.946,83.1941 611.5,84.5C 601.5,108.167 591.5,131.833 581.5,155.5C 574.833,156.833 568.167,156.833 561.5,155.5C 551.724,131.629 541.724,107.962 531.5,84.5 Z"/></g>
<g><path style="opacity:1" fill="#fcfcfc" d="M 108.5,94.5 C 121.43,93.6069 129.93,99.2736 134,111.5C 136.812,123.054 133.979,132.887 125.5,141C 109.068,148.744 98.2343,143.911 93,126.5C 90.4605,111.915 95.6272,101.249 108.5,94.5 Z"/></g>
<g><path style="opacity:1" fill="#fcfcfc" d="M 273.5,108.5 C 273.5,109.833 273.5,111.167 273.5,112.5C 261.167,112.5 248.833,112.5 236.5,112.5C 241.139,96.7108 251.139,91.8775 266.5,98C 270.219,100.612 272.552,104.112 273.5,108.5 Z"/></g>
<g><path style="opacity:1" fill="#0343a4" d="M 460.5,96.5 C 469.953,100.727 479.287,105.227 488.5,110C 490.327,110.899 491.66,112.233 492.5,114C 483.211,119.886 473.544,125.22 463.5,130C 462.207,130.49 460.873,130.657 459.5,130.5C 459.189,119.086 459.523,107.752 460.5,96.5 Z"/></g>
<g><path style="opacity:1" fill="#c7c7c7" d="M 273.5,108.5 C 274.451,109.919 274.784,111.585 274.5,113.5C 261.656,113.829 248.989,113.495 236.5,112.5C 248.833,112.5 261.167,112.5 273.5,112.5C 273.5,111.167 273.5,109.833 273.5,108.5 Z"/></g>
</svg>
