<?xml version="1.0" encoding="UTF-8"?>
<svg version="1.1" xmlns="http://www.w3.org/2000/svg" width="200" height="95" viewBox="0 0 1606 639"
     preserveAspectRatio="xMidYMid meet">
<path d="M0 0 C581.46 0 1162.92 0 1762 0 C1762 171.6 1762 343.2 1762 520 C1180.54 520 599.08 520 0 520 C0 348.4 0 176.8 0 0 Z " fill="#0E0D66" transform="translate(0,0)"/>
<path d="M0 0 C1.87694835 0.01005016 3.75390191 0.01917241 5.63085938 0.02734375 C10.19153673 0.04919531 14.7519598 0.0836129 19.3125 0.125 C19.3125 0.785 19.3125 1.445 19.3125 2.125 C20.03953125 2.07859375 20.7665625 2.0321875 21.515625 1.984375 C29.54218111 1.69624222 35.87247618 3.17009692 43.3125 6.125 C43.3125 6.785 43.3125 7.445 43.3125 8.125 C44.9625 8.125 46.6125 8.125 48.3125 8.125 C48.3125 8.785 48.3125 9.445 48.3125 10.125 C51.2825 10.455 54.2525 10.785 57.3125 11.125 C57.3125 11.785 57.3125 12.445 57.3125 13.125 C58.3025 13.125 59.2925 13.125 60.3125 13.125 C60.3125 13.785 60.3125 14.445 60.3125 15.125 C62.33072917 15.28776042 64.34895833 15.45052083 66.3671875 15.61328125 C68.3125 16.125 68.3125 16.125 70.3125 19.125 C71.3025 19.455 72.2925 19.785 73.3125 20.125 C73.3125 20.785 73.3125 21.445 73.3125 22.125 C73.9725 22.125 74.6325 22.125 75.3125 22.125 C75.3125 22.785 75.3125 23.445 75.3125 24.125 C75.87066406 24.21265625 76.42882813 24.3003125 77.00390625 24.390625 C84.76528675 26.85955822 91.65280157 35.27531624 97.375 40.9375 C97.93501709 41.48825195 98.49503418 42.03900391 99.07202148 42.60644531 C101.73363499 45.28892619 103.77437308 47.67563617 105.3125 51.125 C106.158125 51.95 107.00375 52.775 107.875 53.625 C110.17626327 55.98527002 110.95871864 56.94096775 111.3125 60.125 C111.9725 60.125 112.6325 60.125 113.3125 60.125 C115.74410605 63.49183915 116.3125 64.85850364 116.3125 69.125 C116.9725 69.125 117.6325 69.125 118.3125 69.125 C118.3125 70.445 118.3125 71.765 118.3125 73.125 C118.93898438 73.36734375 119.56546875 73.6096875 120.2109375 73.859375 C122.84338209 75.44471338 123.11530208 76.4626363 123.9375 79.375 C124.29134766 80.58349609 124.29134766 80.58349609 124.65234375 81.81640625 C124.87019531 82.57824219 125.08804687 83.34007813 125.3125 84.125 C125.704375 85.176875 126.09625 86.22875 126.5 87.3125 C127.38396996 90.37239602 127.46338962 92.95631788 127.3125 96.125 C127.9725 96.125 128.6325 96.125 129.3125 96.125 C129.3125 98.435 129.3125 100.745 129.3125 103.125 C129.9725 103.125 130.6325 103.125 131.3125 103.125 C133.20198722 111.51796305 133.58892401 119.54149268 133.5 128.125 C133.49935547 129.33800781 133.49871094 130.55101562 133.49804688 131.80078125 C133.45349114 140.70202657 133.45349114 140.70202657 132.3125 144.125 C132.08798542 146.35074335 131.90467122 148.58081519 131.75 150.8125 C131.62431641 152.58173828 131.62431641 152.58173828 131.49609375 154.38671875 C131.43550781 155.29035156 131.37492187 156.19398438 131.3125 157.125 C130.6525 157.125 129.9925 157.125 129.3125 157.125 C129.3434375 158.8265625 129.3434375 158.8265625 129.375 160.5625 C129.3125 164.125 129.3125 164.125 128.3125 165.125 C127.9640437 166.67987643 127.65859995 168.24449695 127.375 169.8125 C126.63055415 173.71384404 125.68884868 177.38919643 124.3125 181.125 C123.6525 181.125 122.9925 181.125 122.3125 181.125 C122.168125 181.723125 122.02375 182.32125 121.875 182.9375 C121.4252561 184.68650404 120.88357659 186.41177023 120.3125 188.125 C119.6525 188.125 118.9925 188.125 118.3125 188.125 C118.3125 190.105 118.3125 192.085 118.3125 194.125 C118.9725 194.125 119.6325 194.125 120.3125 194.125 C120.56 194.764375 120.8075 195.40375 121.0625 196.0625 C121.475 196.743125 121.8875 197.42375 122.3125 198.125 C122.951875 198.269375 123.59125 198.41375 124.25 198.5625 C126.3125 199.125 126.3125 199.125 128.0625 201.5625 C129.3125 204.125 129.3125 204.125 129.3125 206.125 C129.9725 206.125 130.6325 206.125 131.3125 206.125 C131.6425 208.105 131.9725 210.085 132.3125 212.125 C132.9725 212.125 133.6325 212.125 134.3125 212.125 C134.3125 212.785 134.3125 213.445 134.3125 214.125 C134.9725 214.125 135.6325 214.125 136.3125 214.125 C136.3125 214.785 136.3125 215.445 136.3125 216.125 C136.9725 216.125 137.6325 216.125 138.3125 216.125 C138.65023438 216.76308594 138.98796875 217.40117187 139.3359375 218.05859375 C139.78195312 218.88488281 140.22796875 219.71117187 140.6875 220.5625 C141.12835937 221.38621094 141.56921875 222.20992187 142.0234375 223.05859375 C143.14668559 225.25966578 143.14668559 225.25966578 145.3125 226.125 C145.3125 227.445 145.3125 228.765 145.3125 230.125 C145.9725 230.125 146.6325 230.125 147.3125 230.125 C147.3125 231.115 147.3125 232.105 147.3125 233.125 C147.9725 233.125 148.6325 233.125 149.3125 233.125 C149.56644531 233.80046875 149.82039063 234.4759375 150.08203125 235.171875 C150.42621094 236.06390625 150.77039062 236.9559375 151.125 237.875 C151.46144531 238.75671875 151.79789063 239.6384375 152.14453125 240.546875 C153.20255996 243.15600239 153.20255996 243.15600239 154.94921875 245.203125 C156.3125 247.125 156.3125 247.125 156.3125 251.125 C156.9725 251.125 157.6325 251.125 158.3125 251.125 C163.17055723 264.62387048 163.17055723 264.62387048 165.0625 270.375 C166.1357233 273.88929774 166.1357233 273.88929774 167.3125 276.125 C167.44665472 278.7973621 167.35568541 281.44750488 167.3125 284.125 C167.9725 284.125 168.6325 284.125 169.3125 284.125 C169.38246543 292.50577994 169.43554474 300.88643485 169.46793652 309.26743603 C169.4834945 313.16041171 169.5045486 317.05318543 169.53881836 320.94604492 C169.57176877 324.71324417 169.58942688 328.48025099 169.59713173 332.24758339 C169.60261204 333.67427913 169.61331056 335.10096611 169.62969017 336.52757835 C169.86386346 357.79795481 169.86386346 357.79795481 164.3125 366.125 C163.18824545 369.76229413 162.20090179 373.42332588 161.3125 377.125 C160.6525 377.125 159.9925 377.125 159.3125 377.125 C159.27511719 377.7540625 159.23773437 378.383125 159.19921875 379.03125 C158.74572879 384.93551149 157.63273086 389.67750146 155.3125 395.125 C154.6525 395.125 153.9925 395.125 153.3125 395.125 C153.209375 395.846875 153.10625 396.56875 153 397.3125 C152.24456053 400.40293421 151.15718685 402.54243841 149.3125 405.125 C148.6525 405.125 147.9925 405.125 147.3125 405.125 C146.9825 407.105 146.6525 409.085 146.3125 411.125 C145.3225 411.125 144.3325 411.125 143.3125 411.125 C143.23 412.0325 143.1475 412.94 143.0625 413.875 C142.21555826 417.54508088 141.23342737 418.82366328 138.3125 421.125 C137.6525 421.125 136.9925 421.125 136.3125 421.125 C136.3125 422.115 136.3125 423.105 136.3125 424.125 C135.6525 424.125 134.9925 424.125 134.3125 424.125 C133.9825 425.775 133.6525 427.425 133.3125 429.125 C132.6525 429.125 131.9925 429.125 131.3125 429.125 C130.9825 430.115 130.6525 431.105 130.3125 432.125 C129.3225 432.125 128.3325 432.125 127.3125 432.125 C127.003125 432.92164063 127.003125 432.92164063 126.6875 433.734375 C124.73288808 437.13273436 122.09126283 439.63555928 119.3125 442.375 C118.7659375 442.92929687 118.219375 443.48359375 117.65625 444.0546875 C113.5658867 448.125 113.5658867 448.125 111.3125 448.125 C111.3125 448.785 111.3125 449.445 111.3125 450.125 C110.6525 450.125 109.9925 450.125 109.3125 450.125 C108.9825 451.445 108.6525 452.765 108.3125 454.125 C106.6625 454.455 105.0125 454.785 103.3125 455.125 C103.3125 455.785 103.3125 456.445 103.3125 457.125 C99.3412497 461.47932911 94.41687009 464.36887087 89.23046875 467.046875 C87.16086645 468.09669401 87.16086645 468.09669401 85.3125 470.125 C84.3225 470.125 83.3325 470.125 82.3125 470.125 C82.3125 470.785 82.3125 471.445 82.3125 472.125 C81.3225 472.125 80.3325 472.125 79.3125 472.125 C79.3125 472.785 79.3125 473.445 79.3125 474.125 C78.136875 474.5375 76.96125 474.95 75.75 475.375 C72.32833727 476.64538966 69.36394864 478.26455047 66.234375 480.15234375 C63.16732211 481.70457173 59.90299866 482.48863028 56.6015625 483.40625 C53.87738223 484.26162401 51.71112373 485.59254595 49.3125 487.125 C44.60126043 488.95909326 40.10735978 489.65941578 35.125 490.1875 C29.64414805 490.76537744 29.64414805 490.76537744 24.3125 492.125 C22.36619626 492.22868871 20.41655255 492.27356511 18.4675293 492.28613281 C17.26585617 492.29574036 16.06418304 492.3053479 14.82609558 492.31524658 C12.87610405 492.3216214 12.87610405 492.3216214 10.88671875 492.328125 C9.53774515 492.33387993 8.18877155 492.33963762 6.83979797 492.34539795 C4.01111471 492.35589881 1.18245978 492.36174722 -1.64624023 492.36523438 C-5.26096261 492.37071246 -8.87530704 492.39472915 -12.48991108 492.42320633 C-15.2772682 492.44188379 -18.06453529 492.44704104 -20.85194969 492.44857025 C-22.82942954 492.45304834 -24.80686109 492.47167094 -26.78425598 492.49053955 C-27.99538559 492.48753845 -29.2065152 492.48453735 -30.4543457 492.48144531 C-31.51563187 492.48509094 -32.57691803 492.48873657 -33.67036438 492.49249268 C-37.20142424 492.06240308 -39.58739548 490.82834707 -42.6875 489.125 C-44.62963457 488.50889204 -46.58868246 487.94298986 -48.5625 487.4375 C-49.52929688 487.18613281 -50.49609375 486.93476563 -51.4921875 486.67578125 C-52.21664063 486.49402344 -52.94109375 486.31226563 -53.6875 486.125 C-53.6875 485.465 -53.6875 484.805 -53.6875 484.125 C-55.3375 484.125 -56.9875 484.125 -58.6875 484.125 C-58.6875 483.465 -58.6875 482.805 -58.6875 482.125 C-61.6575 481.795 -64.6275 481.465 -67.6875 481.125 C-67.6875 480.465 -67.6875 479.805 -67.6875 479.125 C-68.47125 478.980625 -69.255 478.83625 -70.0625 478.6875 C-72.6875 478.125 -72.6875 478.125 -74.6875 477.125 C-74.6875 476.465 -74.6875 475.805 -74.6875 475.125 C-77.9875 474.795 -81.2875 474.465 -84.6875 474.125 C-84.6875 473.465 -84.6875 472.805 -84.6875 472.125 C-85.3475 472.125 -86.0075 472.125 -86.6875 472.125 C-86.6875 471.135 -86.6875 470.145 -86.6875 469.125 C-88.6675 468.795 -90.6475 468.465 -92.6875 468.125 C-92.6875 467.465 -92.6875 466.805 -92.6875 466.125 C-93.244375 466.021875 -93.80125 465.91875 -94.375 465.8125 C-97.15599749 464.98571696 -99.23950184 463.67738908 -101.6875 462.125 C-102.925 461.3825 -102.925 461.3825 -104.1875 460.625 C-105.425 459.8825 -105.425 459.8825 -106.6875 459.125 C-107.925 458.4134375 -107.925 458.4134375 -109.1875 457.6875 C-111.86329896 456.01512565 -114.23861227 454.11058465 -116.6875 452.125 C-117.3475 451.795 -118.0075 451.465 -118.6875 451.125 C-118.6875 450.465 -118.6875 449.805 -118.6875 449.125 C-119.3475 449.125 -120.0075 449.125 -120.6875 449.125 C-120.935 448.5475 -121.1825 447.97 -121.4375 447.375 C-122.62740475 444.99050111 -122.62740475 444.99050111 -124.8125 443 C-125.43125 442.38125 -126.05 441.7625 -126.6875 441.125 C-126.6875 440.465 -126.6875 439.805 -126.6875 439.125 C-127.244375 439.08375 -127.80125 439.0425 -128.375 439 C-131.981895 437.63522892 -133.41788496 435.21419824 -135.6875 432.125 C-135.6875 431.465 -135.6875 430.805 -135.6875 430.125 C-136.3475 430.125 -137.0075 430.125 -137.6875 430.125 C-137.6875 428.805 -137.6875 427.485 -137.6875 426.125 C-138.8321875 425.75375 -138.8321875 425.75375 -140 425.375 C-143.03971435 423.96117937 -144.07127797 423.03419965 -145.6875 420.125 C-146.375 416.875 -146.375 416.875 -146.6875 414.125 C-147.3475 414.125 -148.0075 414.125 -148.6875 414.125 C-148.6875 413.465 -148.6875 412.805 -148.6875 412.125 C-149.6775 411.795 -150.6675 411.465 -151.6875 411.125 C-153.1352922 408.22941559 -153.6875 406.38311062 -153.6875 403.125 C-154.6775 403.125 -155.6675 403.125 -156.6875 403.125 C-156.6875 402.135 -156.6875 401.145 -156.6875 400.125 C-157.3475 400.125 -158.0075 400.125 -158.6875 400.125 C-159.0175 398.145 -159.3475 396.165 -159.6875 394.125 C-160.3475 394.125 -161.0075 394.125 -161.6875 394.125 C-162.0175 390.495 -162.3475 386.865 -162.6875 383.125 C-163.3475 383.125 -164.0075 383.125 -164.6875 383.125 C-169.08989499 374.07439101 -171.57840308 365.10687228 -172.6875 355.125 C-173.0175 354.795 -173.3475 354.465 -173.6875 354.125 C-174.00987212 351.54602306 -174.20017304 348.96568179 -174.40625 346.375 C-174.44950665 344.15834648 -174.44950665 344.15834648 -175.6875 343.125 C-175.78581146 341.62629952 -175.81548456 340.12301461 -175.81689453 338.62109375 C-175.82004669 337.66340088 -175.82319885 336.70570801 -175.82644653 335.71899414 C-175.8244223 334.67735107 -175.82239807 333.63570801 -175.8203125 332.5625 C-175.82126923 331.50087646 -175.82222595 330.43925293 -175.82321167 329.34545898 C-175.82389364 327.09586528 -175.82203819 324.84626963 -175.81787109 322.59667969 C-175.8125231 319.13992929 -175.81781554 315.68330883 -175.82421875 312.2265625 C-175.82355797 310.04687471 -175.82227682 307.867187 -175.8203125 305.6875 C-175.82334885 304.1250354 -175.82334885 304.1250354 -175.82644653 302.53100586 C-175.82329437 301.57331299 -175.82014221 300.61562012 -175.81689453 299.62890625 C-175.81609894 298.78142822 -175.81530334 297.9339502 -175.81448364 297.06079102 C-175.6875 295.125 -175.6875 295.125 -174.6875 294.125 C-174.48145915 292.79718122 -174.3212041 291.46204105 -174.1875 290.125 C-173.79861111 286.23611111 -173.79861111 286.23611111 -172.6875 285.125 C-172.543125 284.09375 -172.39875 283.0625 -172.25 282 C-171.70156448 278.22188864 -170.73462483 274.78993691 -169.6875 271.125 C-169.31799535 268.79712073 -168.97397533 266.46454855 -168.6875 264.125 C-168.0275 264.125 -167.3675 264.125 -166.6875 264.125 C-166.6875 262.475 -166.6875 260.825 -166.6875 259.125 C-166.0275 259.125 -165.3675 259.125 -164.6875 259.125 C-164.3575 255.825 -164.0275 252.525 -163.6875 249.125 C-163.0275 249.125 -162.3675 249.125 -161.6875 249.125 C-161.501875 248.320625 -161.501875 248.320625 -161.3125 247.5 C-160.56543984 244.6611714 -159.63446636 241.90276798 -158.6875 239.125 C-157.6975 239.125 -156.7075 239.125 -155.6875 239.125 C-155.625625 238.17625 -155.56375 237.2275 -155.5 236.25 C-154.59358097 229.81311124 -151.38246721 223.58081339 -146.6875 219.125 C-145.34418346 217.13169158 -144.01155988 215.13115134 -142.6875 213.125 C-140.625 210.25 -140.625 210.25 -138.6875 208.125 C-137.6975 208.125 -136.7075 208.125 -135.6875 208.125 C-135.584375 207.50625 -135.48125 206.8875 -135.375 206.25 C-134.6875 204.125 -134.6875 204.125 -131.6875 202.125 C-130.48267061 200.4070354 -130.48267061 200.4070354 -129.5 198.5 C-128.901875 197.38625 -128.30375 196.2725 -127.6875 195.125 C-127.0275 195.125 -126.3675 195.125 -125.6875 195.125 C-125.6875 194.465 -125.6875 193.805 -125.6875 193.125 C-122.22596154 190.125 -122.22596154 190.125 -119.6875 190.125 C-119.0275 188.805 -118.3675 187.485 -117.6875 186.125 C-116.6975 186.125 -115.7075 186.125 -114.6875 186.125 C-114.6875 185.465 -114.6875 184.805 -114.6875 184.125 C-114.0275 184.125 -113.3675 184.125 -112.6875 184.125 C-112.6875 183.465 -112.6875 182.805 -112.6875 182.125 C-111.2265625 180.8359375 -111.2265625 180.8359375 -109.3125 179.5 C-108.68601562 179.05398437 -108.05953125 178.60796875 -107.4140625 178.1484375 C-105.6875 177.125 -105.6875 177.125 -103.6875 177.125 C-103.6875 176.465 -103.6875 175.805 -103.6875 175.125 C-102.0375 174.795 -100.3875 174.465 -98.6875 174.125 C-98.6875 173.135 -98.6875 172.145 -98.6875 171.125 C-96.89796815 170.28709211 -95.10580305 169.45480604 -93.3125 168.625 C-92.31476563 168.1609375 -91.31703125 167.696875 -90.2890625 167.21875 C-87.6875 166.125 -87.6875 166.125 -85.6875 166.125 C-85.6875 165.465 -85.6875 164.805 -85.6875 164.125 C-84.99785156 163.88265625 -84.30820313 163.6403125 -83.59765625 163.390625 C-79.01292023 161.75546538 -74.4890472 160.09166057 -70.0625 158.0625 C-62.08719479 154.46165673 -54.1129155 152.47876846 -45.53125 150.7734375 C-42.80143762 150.41634106 -42.80143762 150.41634106 -41.6875 149.125 C-39.10852306 148.80262788 -36.52818179 148.61232696 -33.9375 148.40625 C-31.72084648 148.36299335 -31.72084648 148.36299335 -30.6875 147.125 C-28.84631971 147.03118698 -27.00152359 147.00756046 -25.15795898 147.01147461 C-23.97681015 147.01155014 -22.79566132 147.01162567 -21.57872009 147.01170349 C-20.2933284 147.01686478 -19.00793671 147.02202606 -17.68359375 147.02734375 C-15.7213662 147.02946617 -15.7213662 147.02946617 -13.71949768 147.03163147 C-10.23587141 147.0354559 -6.75228661 147.04528554 -3.26867676 147.05633545 C0.28376708 147.06655118 3.83621759 147.07112944 7.38867188 147.07617188 C14.36329832 147.08690788 21.33789717 147.1039834 28.3125 147.125 C28.3125 147.785 28.3125 148.445 28.3125 149.125 C28.88097656 149.10179687 29.44945312 149.07859375 30.03515625 149.0546875 C35.22491184 148.93339104 39.33406401 149.49413304 44.3125 151.125 C47.12611759 151.8755656 49.94359191 152.61031954 52.76171875 153.34375 C55.1186337 154.06562288 57.15153781 154.95089408 59.3125 156.125 C59.3125 156.785 59.3125 157.445 59.3125 158.125 C60.55 158.24875 61.7875 158.3725 63.0625 158.5 C66.1887197 158.88246305 68.60129237 159.43049523 71.3125 161.125 C71.3125 161.785 71.3125 162.445 71.3125 163.125 C72.02792969 163.24746094 72.74335937 163.36992187 73.48046875 163.49609375 C76.36362713 164.13635375 78.89842473 165.06051556 81.625 166.1875 C82.50800781 166.54972656 83.39101562 166.91195312 84.30078125 167.28515625 C84.96464844 167.56230469 85.62851563 167.83945313 86.3125 168.125 C86.3125 168.785 86.3125 169.445 86.3125 170.125 C89.6125 170.785 92.9125 171.445 96.3125 172.125 C96.3125 170.145 96.3125 168.165 96.3125 166.125 C96.9725 166.125 97.6325 166.125 98.3125 166.125 C98.43625 165.073125 98.56 164.02125 98.6875 162.9375 C99.23144619 159.61942822 100.05274563 157.19565129 101.3125 154.125 C101.68843066 152.1325675 102.03229545 150.1331326 102.3125 148.125 C102.9725 148.125 103.6325 148.125 104.3125 148.125 C104.3125 136.905 104.3125 125.685 104.3125 114.125 C103.6525 114.125 102.9925 114.125 102.3125 114.125 C101.97377487 112.70961283 101.64175376 111.29262037 101.3125 109.875 C101.126875 109.08609375 100.94125 108.2971875 100.75 107.484375 C100.3125 105.125 100.3125 105.125 100.3125 101.125 C99.6525 101.125 98.9925 101.125 98.3125 101.125 C98.3125 99.475 98.3125 97.825 98.3125 96.125 C97.6525 96.125 96.9925 96.125 96.3125 96.125 C95.9825 93.155 95.6525 90.185 95.3125 87.125 C94.6525 87.125 93.9925 87.125 93.3125 87.125 C93.3125 85.805 93.3125 84.485 93.3125 83.125 C92.6525 83.125 91.9925 83.125 91.3125 83.125 C88.3125 77.5 88.3125 77.5 88.3125 74.125 C87.6525 74.125 86.9925 74.125 86.3125 74.125 C86.3125 73.135 86.3125 72.145 86.3125 71.125 C85.6525 71.125 84.9925 71.125 84.3125 71.125 C82.5859375 69.4453125 82.5859375 69.4453125 80.6875 67.25 C80.05585937 66.53070313 79.42421875 65.81140625 78.7734375 65.0703125 C77.3125 63.125 77.3125 63.125 77.3125 61.125 C76.6525 61.125 75.9925 61.125 75.3125 61.125 C73.48520951 59.18969234 71.84354622 57.13452377 70.1640625 55.0703125 C68.30652052 53.11871776 66.77778691 52.156728 64.3125 51.125 C64.3125 50.465 64.3125 49.805 64.3125 49.125 C63.6525 49.125 62.9925 49.125 62.3125 49.125 C61.6525 48.135 60.9925 47.145 60.3125 46.125 C59.3225 45.795 58.3325 45.465 57.3125 45.125 C57.3125 44.465 57.3125 43.805 57.3125 43.125 C56.6525 43.125 55.9925 43.125 55.3125 43.125 C55.3125 42.465 55.3125 41.805 55.3125 41.125 C53.0025 40.795 50.6925 40.465 48.3125 40.125 C48.3125 39.465 48.3125 38.805 48.3125 38.125 C47.735 38.00125 47.1575 37.8775 46.5625 37.75 C44.3125 37.125 44.3125 37.125 42.625 36.15625 C39.48643477 34.75661956 36.46370472 34.44089691 33.0625 34 C31.79921875 33.83242188 30.5359375 33.66484375 29.234375 33.4921875 C28.27015625 33.37101562 27.3059375 33.24984375 26.3125 33.125 C26.3125 32.465 26.3125 31.805 26.3125 31.125 C25.343125 31.145625 24.37375 31.16625 23.375 31.1875 C20.3125 31.125 20.3125 31.125 19.3125 30.125 C6.99092485 26.3737649 -5.53951594 27.53582289 -17.6875 31.125 C-19.83086016 31.67637164 -21.97670837 32.21816683 -24.125 32.75 C-25.07246094 32.98976562 -26.01992187 33.22953125 -26.99609375 33.4765625 C-29.55028853 34.09194179 -32.1077945 34.62872272 -34.6875 35.125 C-34.6875 35.785 -34.6875 36.445 -34.6875 37.125 C-35.29078125 37.25777344 -35.8940625 37.39054687 -36.515625 37.52734375 C-37.31484375 37.70394531 -38.1140625 37.88054688 -38.9375 38.0625 C-39.72640625 38.23652344 -40.5153125 38.41054688 -41.328125 38.58984375 C-43.45628703 39.072556 -45.57282842 39.58663178 -47.6875 40.125 C-47.6875 40.785 -47.6875 41.445 -47.6875 42.125 C-51.1525 42.62 -51.1525 42.62 -54.6875 43.125 C-54.6875 43.785 -54.6875 44.445 -54.6875 45.125 C-56.33503648 46.15621352 -58.00662025 47.14907938 -59.6875 48.125 C-61.62950598 49.61334065 -63.54576413 51.13576531 -65.4375 52.6875 C-66.40171875 53.47253906 -67.3659375 54.25757813 -68.359375 55.06640625 C-70.7350518 56.9085933 -70.7350518 56.9085933 -71.6875 59.125 C-72.3475 59.125 -73.0075 59.125 -73.6875 59.125 C-74.0175 60.445 -74.3475 61.765 -74.6875 63.125 C-75.3475 63.125 -76.0075 63.125 -76.6875 63.125 C-76.77 63.66125 -76.8525 64.1975 -76.9375 64.75 C-77.96331271 67.99840691 -79.65313894 70.41251859 -81.6875 73.125 C-82.3475 73.125 -83.0075 73.125 -83.6875 73.125 C-83.790625 73.764375 -83.89375 74.40375 -84 75.0625 C-84.226875 75.743125 -84.45375 76.42375 -84.6875 77.125 C-86.1725 77.62 -86.1725 77.62 -87.6875 78.125 C-88.0175 80.435 -88.3475 82.745 -88.6875 85.125 C-89.3475 85.125 -90.0075 85.125 -90.6875 85.125 C-90.6875 86.445 -90.6875 87.765 -90.6875 89.125 C-91.3475 89.125 -92.0075 89.125 -92.6875 89.125 C-92.790625 90.135625 -92.89375 91.14625 -93 92.1875 C-93.70891853 96.24766978 -95.01304902 99.37422981 -96.6875 103.125 C-97.35938497 105.45683607 -98.02665417 107.79001142 -98.6875 110.125 C-99.19796875 110.94484375 -99.19796875 110.94484375 -99.71875 111.78125 C-101.48002517 116.04239961 -101.08704355 120.745063 -101.16601562 125.30664062 C-101.34792541 130.61751902 -102.18477698 134.40763718 -104.6875 139.125 C-107.3125 141.4375 -107.3125 141.4375 -109.6875 143.125 C-110.0175 143.785 -110.3475 144.445 -110.6875 145.125 C-114.3175 145.125 -117.9475 145.125 -121.6875 145.125 C-121.6875 144.465 -121.6875 143.805 -121.6875 143.125 C-122.863125 142.691875 -122.863125 142.691875 -124.0625 142.25 C-126.6875 141.125 -126.6875 141.125 -128.6875 139.125 C-128.8125 136 -128.8125 136 -128.6875 133.125 C-129.3475 133.125 -130.0075 133.125 -130.6875 133.125 C-130.71435095 130.64576199 -130.73426547 128.1668116 -130.75 125.6875 C-130.76256836 124.62692383 -130.76256836 124.62692383 -130.77539062 123.54492188 C-130.78403588 121.73806441 -130.73970011 119.93112397 -130.6875 118.125 C-130.3575 117.795 -130.0275 117.465 -129.6875 117.125 C-129.47818103 114.96203727 -129.31952931 112.7940529 -129.1875 110.625 C-128.79861111 104.23611111 -128.79861111 104.23611111 -127.6875 103.125 C-127.29083773 100.94480521 -126.94434763 98.7553537 -126.625 96.5625 C-126.44839844 95.36496094 -126.27179688 94.16742188 -126.08984375 92.93359375 C-125.95707031 92.00675781 -125.82429688 91.07992187 -125.6875 90.125 C-124.6975 90.125 -123.7075 90.125 -122.6875 90.125 C-122.3575 87.155 -122.0275 84.185 -121.6875 81.125 C-121.0275 81.125 -120.3675 81.125 -119.6875 81.125 C-119.63851563 80.51011719 -119.58953125 79.89523438 -119.5390625 79.26171875 C-119.46429687 78.45347656 -119.38953125 77.64523438 -119.3125 76.8125 C-119.24289062 76.01199219 -119.17328125 75.21148437 -119.1015625 74.38671875 C-118.6875 72.125 -118.6875 72.125 -116.6875 69.125 C-116.0275 69.125 -115.3675 69.125 -114.6875 69.125 C-114.39875 68.361875 -114.11 67.59875 -113.8125 66.8125 C-112.6875 64.125 -112.6875 64.125 -110.6875 61.125 C-110.0275 61.125 -109.3675 61.125 -108.6875 61.125 C-108.6875 60.135 -108.6875 59.145 -108.6875 58.125 C-108.0275 58.125 -107.3675 58.125 -106.6875 58.125 C-106.3575 56.475 -106.0275 54.825 -105.6875 53.125 C-105.0275 53.125 -104.3675 53.125 -103.6875 53.125 C-103.2853125 52.2896875 -103.2853125 52.2896875 -102.875 51.4375 C-101.57133449 48.89878296 -100.31741973 46.47208441 -98.6875 44.125 C-97.6975 44.125 -96.7075 44.125 -95.6875 44.125 C-95.3575 42.805 -95.0275 41.485 -94.6875 40.125 C-93.3675 39.795 -92.0475 39.465 -90.6875 39.125 C-90.6875 38.465 -90.6875 37.805 -90.6875 37.125 C-90.0275 37.125 -89.3675 37.125 -88.6875 37.125 C-88.666875 36.403125 -88.64625 35.68125 -88.625 34.9375 C-87.26737768 30.86463305 -84.38681507 29.13271141 -80.6875 27.125 C-80.0275 27.125 -79.3675 27.125 -78.6875 27.125 C-78.6875 26.465 -78.6875 25.805 -78.6875 25.125 C-78.11 24.8775 -77.5325 24.63 -76.9375 24.375 C-74.56893237 23.20861856 -74.56893237 23.20861856 -72.75 21.0625 C-70.37910532 18.83529591 -68.87085068 18.47870563 -65.6875 18.125 C-65.6875 17.465 -65.6875 16.805 -65.6875 16.125 C-62.2225 15.63 -62.2225 15.63 -58.6875 15.125 C-58.6875 14.465 -58.6875 13.805 -58.6875 13.125 C-57.3675 13.125 -56.0475 13.125 -54.6875 13.125 C-54.6875 12.465 -54.6875 11.805 -54.6875 11.125 C-53.6975 11.125 -52.7075 11.125 -51.6875 11.125 C-51.6875 10.465 -51.6875 9.805 -51.6875 9.125 C-51.16542969 8.95484375 -50.64335938 8.7846875 -50.10546875 8.609375 C-44.95727751 6.91434881 -39.89272202 5.08230204 -34.8515625 3.08984375 C-23.32578432 -0.42480713 -11.92678136 -0.11151441 0 0 Z " fill="#194BA5" transform="translate(1350.6875,13.875)"/>
<path d="M0 0 C1.07121094 0.37382812 2.14242187 0.74765625 3.24609375 1.1328125 C15.87075004 5.98968664 25.40225968 13.73725934 35 23 C37.43356163 15.6993151 39.70459568 8.34529382 42 1 C54.21 1 66.42 1 79 1 C79 70.96 79 140.92 79 213 C66.79 213 54.58 213 42 213 C40.02 206.07 40.02 206.07 38 199 C37.02100296 195.99308051 36.03087306 192.98953186 35 190 C34.45085937 190.70962891 34.45085937 190.70962891 33.890625 191.43359375 C25.58073324 201.58353297 15.15864239 208.29956395 3 213 C1.79472656 213.48726562 0.58945312 213.97453125 -0.65234375 214.4765625 C-22.46748319 222.50593594 -49.31857473 219.50084941 -70.16650391 209.88427734 C-79.61673704 205.32652176 -88.02714747 199.85188908 -96 193 C-96.99193359 192.22462891 -96.99193359 192.22462891 -98.00390625 191.43359375 C-118.8027434 174.66847047 -131.18952463 146.08247252 -134 120 C-135.90902968 89.65120071 -129.88564153 58.48544247 -109.36328125 34.90625 C-106.64481241 31.86947794 -103.82629642 28.93630197 -101 26 C-100.14148438 25.02933594 -100.14148438 25.02933594 -99.265625 24.0390625 C-75.55577301 -1.9928884 -32.6625329 -11.47501156 0 0 Z " fill="#FDFDFD" transform="translate(336,245)"/>
<path d="M0 0 C8.91 0 17.82 0 27 0 C27 0.66 27 1.32 27 2 C28.010625 1.9175 29.02125 1.835 30.0625 1.75 C36.87406325 1.7007301 43.51334039 4.10805762 50 6 C50 6.66 50 7.32 50 8 C50.556875 8.02578125 51.11375 8.0515625 51.6875 8.078125 C57.32322493 8.49699645 62.40359602 9.52789627 67 13 C68.22265625 15.13671875 68.22265625 15.13671875 69 17 C70.32 17 71.64 17 73 17 C73 17.66 73 18.32 73 19 C74.0725 19.0825 75.145 19.165 76.25 19.25 C80.42208146 20.08441629 81.27564714 20.91240009 84 24 C84.7425 24.433125 85.485 24.86625 86.25 25.3125 C91.97799197 28.82740417 96.84719715 33.00967459 100 39 C102.52975984 42.55231423 102.52975984 42.55231423 106 45 C107.6268418 47.4402627 108.90684102 49.75157606 109.9375 52.5 C111.18795361 55.44224378 112.99574093 57.52808049 115 60 C115 60.66 115 61.32 115 62 C115.66 62 116.32 62 117 62 C119.23053256 70.82022774 121.41405133 79.64092387 123.38671875 88.5234375 C123.89941423 90.98141585 123.89941423 90.98141585 125 93 C125.09936121 95.76505379 125.13979214 98.50429319 125.1328125 101.26953125 C125.13376923 102.10151535 125.13472595 102.93349945 125.13571167 103.79069519 C125.13639352 105.56025264 125.1345389 107.32981257 125.13037109 109.09936523 C125.12509687 111.76356918 125.13027691 114.42759873 125.13671875 117.09179688 C125.14000768 126.44716252 124.93579319 135.68363525 124 145 C123.34 145 122.68 145 122 145 C121.87882812 145.721875 121.75765625 146.44375 121.6328125 147.1875 C118.5900198 160.71102313 109.46072465 175.85726378 100 186 C97.80078125 186.71484375 97.80078125 186.71484375 96 187 C94.79996657 188.81601365 94.79996657 188.81601365 94 191 C92.60048811 194.41725476 91.16389746 195.8656199 88 197.75 C87.29875 198.17796875 86.5975 198.6059375 85.875 199.046875 C84 200 84 200 82 200 C82 200.66 82 201.32 82 202 C80.39526367 203.20507812 80.39526367 203.20507812 78.16796875 204.53125 C77.36939453 205.01207031 76.57082031 205.49289062 75.74804688 205.98828125 C74.90306641 206.48714844 74.05808594 206.98601562 73.1875 207.5 C71.53494586 208.48923195 69.88259397 209.47880187 68.23046875 210.46875 C67.49207764 210.90638672 66.75368652 211.34402344 65.99291992 211.79492188 C64.30055773 212.81825885 62.64554819 213.90296787 61 215 C59.28555111 215.43738696 57.55332216 215.80848688 55.8125 216.125 C54.91144531 216.29257812 54.01039063 216.46015625 53.08203125 216.6328125 C52.39496094 216.75398437 51.70789062 216.87515625 51 217 C51 217.66 51 218.32 51 219 C25.44963133 226.51481432 -1.60259786 225.85359235 -26.4375 216.3125 C-29.67089007 215.12125103 -32.59135894 214.42608013 -36 214 C-36 213.34 -36 212.68 -36 212 C-36.82371094 211.85304688 -36.82371094 211.85304688 -37.6640625 211.703125 C-43.82144553 209.84973212 -49.65672254 205.28681128 -54.5 201.125 C-56.88278963 198.83158853 -56.88278963 198.83158853 -60 198 C-60 197.34 -60 196.68 -60 196 C-60.66 196 -61.32 196 -62 196 C-62 195.34 -62 194.68 -62 194 C-62.66 194 -63.32 194 -64 194 C-65.515625 192.3125 -65.515625 192.3125 -67.25 190 C-67.86875 189.18015625 -68.4875 188.3603125 -69.125 187.515625 C-69.74375 186.68546875 -70.3625 185.8553125 -71 185 C-71.556875 184.27296875 -72.11375 183.5459375 -72.6875 182.796875 C-74.85011595 179.96384811 -76.88120399 177.20239321 -78.6875 174.125 C-79.96941947 171.71964233 -79.96941947 171.71964233 -83 170 C-84.12313504 167.33255427 -85.08898087 164.7377293 -86 162 C-86.28230469 161.22398437 -86.56460937 160.44796875 -86.85546875 159.6484375 C-88.27435311 155.664903 -89.41562273 152.29476816 -89 148 C-89.66 148 -90.32 148 -91 148 C-91.10957031 147.36191406 -91.21914062 146.72382813 -91.33203125 146.06640625 C-91.56986328 144.82697266 -91.56986328 144.82697266 -91.8125 143.5625 C-91.96332031 142.73878906 -92.11414062 141.91507813 -92.26953125 141.06640625 C-92.51058594 140.38449219 -92.75164062 139.70257813 -93 139 C-93.99 138.67 -94.98 138.34 -96 138 C-100.13465768 112.09170147 -97.55365184 86.46406727 -86 63 C-85.34 63 -84.68 63 -84 63 C-84 62.01 -84 61.02 -84 60 C-83.34 60 -82.68 60 -82 60 C-81.87238281 59.4328125 -81.74476562 58.865625 -81.61328125 58.28125 C-80.07392139 52.55522353 -77.81187617 46.68910506 -73 43 C-72.34 43 -71.68 43 -71 43 C-70.938125 42.443125 -70.87625 41.88625 -70.8125 41.3125 C-69.67045135 38.06205385 -67.44372943 36.38412628 -65 34 C-64.4740625 32.88625 -64.4740625 32.88625 -63.9375 31.75 C-63.628125 31.1725 -63.31875 30.595 -63 30 C-61.66666667 29.66666667 -60.33333333 29.33333333 -59 29 C-57.71563266 27.0162233 -57.71563266 27.0162233 -57 25 C-56.34 25 -55.68 25 -55 25 C-55 24.34 -55 23.68 -55 23 C-44.82293363 14.40362692 -32.95772097 9.80026489 -20.25 6.5 C-17.16800814 5.69433408 -15.11295448 5.07438466 -12.4375 3.3125 C-8.50820715 1.19672693 -4.37162671 1.77080792 0 2 C0 1.34 0 0.68 0 0 Z " fill="#A6E4F3" transform="translate(1333,220)"/>
<path d="M0 0 C6.44611144 5.2427251 11.69996998 10.31091524 13.9921875 18.43359375 C14.6521875 18.43359375 15.3121875 18.43359375 15.9921875 18.43359375 C16.23582031 17.71042969 16.47945312 16.98726563 16.73046875 16.2421875 C23.14026678 1.97393741 39.60514101 -6.99173954 53.328125 -12.5859375 C59.18296465 -14.74072452 64.48524578 -14.7498121 70.6796875 -14.75390625 C71.63552734 -14.76615234 72.59136719 -14.77839844 73.57617188 -14.79101562 C79.6580631 -14.80345303 85.131946 -14.18905265 90.9921875 -12.56640625 C92.02085937 -12.2828125 93.04953125 -11.99921875 94.109375 -11.70703125 C113.18322661 -5.54720382 125.21059731 5.39485462 134.6171875 22.93359375 C137.25268497 28.37672703 139.21893522 33.80517022 140.8671875 39.62109375 C141.07037598 40.33265625 141.27356445 41.04421875 141.48291016 41.77734375 C144.25237108 52.27012384 144.13558316 63.02854322 144.10571289 73.80932617 C144.10543016 75.21979775 144.10559042 76.63026947 144.1061554 78.04074097 C144.10644003 81.83543628 144.10059773 85.63009939 144.09358144 89.42478728 C144.08729188 93.40325106 144.0867397 97.38171573 144.08555603 101.36018372 C144.08245914 108.87863429 144.07426806 116.39707016 144.06420654 123.91551429 C144.05299419 132.48150522 144.04752209 141.04749688 144.04251111 149.61349332 C144.03208393 167.22020347 144.01375905 184.82689349 143.9921875 202.43359375 C130.7921875 202.43359375 117.5921875 202.43359375 103.9921875 202.43359375 C103.97236816 198.35677246 103.95254883 194.27995117 103.93212891 190.07958984 C103.86508078 176.57674415 103.78754037 163.07397556 103.70466042 149.57121849 C103.65468775 141.38831802 103.60824404 133.20542681 103.5703125 125.02246094 C103.53721523 117.88437027 103.4972883 110.74635482 103.44939744 103.60834754 C103.42430733 99.83412083 103.40247608 96.05994289 103.38884354 92.28565598 C103.37586232 88.72171601 103.3536415 85.15794484 103.32480431 81.59409904 C103.31163472 79.68599102 103.30783837 77.77782521 103.30448914 75.86967468 C103.16145048 60.85293871 102.21350192 45.88052658 91.48046875 34.48046875 C80.83322417 25.72198185 68.21063953 24.32880671 54.9921875 25.43359375 C47.24447775 27.0531715 41.14731811 32.66561545 35.9921875 38.43359375 C28.05339763 50.60145859 27.85112856 64.07644092 27.78686523 78.12329102 C27.77726766 79.48421005 27.76725653 80.84512622 27.75686646 82.20603943 C27.7300147 85.8747925 27.70889936 89.54355817 27.68886447 93.21235394 C27.66688205 97.05605651 27.63955376 100.8997211 27.61280823 104.74339294 C27.56304605 112.01042886 27.51804664 119.27748603 27.47478586 126.54456323 C27.42527199 134.82275318 27.37040668 143.100905 27.31510627 151.379058 C27.20153938 168.3972026 27.0953523 185.41538243 26.9921875 202.43359375 C13.7921875 202.43359375 0.5921875 202.43359375 -13.0078125 202.43359375 C-13.02239502 198.33695313 -13.03697754 194.2403125 -13.05200195 190.01953125 C-13.10247796 176.44084138 -13.16894856 162.86226859 -13.24352741 149.28369141 C-13.28833091 141.05600269 -13.32778035 132.82835576 -13.35424805 124.60058594 C-13.37735413 117.42216293 -13.41089047 110.24387393 -13.45651406 103.06555748 C-13.4802779 99.27112272 -13.4991161 95.47681927 -13.50542641 91.68231201 C-12.49383083 61.87294251 -12.49383083 61.87294251 -24.56640625 35.60546875 C-33.85097603 26.78846723 -45.56939471 24.93465883 -57.80078125 25.1640625 C-66.16380336 25.53808618 -71.90985109 29.39299611 -77.9296875 35.0234375 C-88.48736226 47.26795879 -89.14322477 62.68498035 -89.21313477 78.00976562 C-89.22272931 79.37053718 -89.23274028 80.73130585 -89.24313354 82.09207153 C-89.27001807 85.76501582 -89.29111599 89.43797275 -89.31113553 93.11096001 C-89.33309737 96.95733784 -89.36043587 100.80367748 -89.38719177 104.65002441 C-89.43698145 111.92417671 -89.48197083 119.19835036 -89.52521414 126.47254419 C-89.57470429 134.7579661 -89.6295785 143.04334965 -89.68489373 151.3287344 C-89.79850291 168.36365334 -89.90467668 185.39860769 -90.0078125 202.43359375 C-104.1978125 202.43359375 -118.3878125 202.43359375 -133.0078125 202.43359375 C-133.0078125 132.47359375 -133.0078125 62.51359375 -133.0078125 -9.56640625 C-121.4578125 -9.56640625 -109.9078125 -9.56640625 -98.0078125 -9.56640625 C-95.3678125 -4.28640625 -92.7278125 0.99359375 -90.0078125 6.43359375 C-86.53694854 4.69816177 -85.48512277 4.06035657 -83.1328125 1.37109375 C-60.10995939 -22.14475408 -25.04864657 -18.15873767 0 0 Z " fill="#FDFDFE" transform="translate(995.0078125,255.56640625)"/>
<path d="M0 0 C1.77201782 0.0163147 1.77201782 0.0163147 3.57983398 0.03295898 C29.97286561 0.51250327 52.09645648 9.62729038 70.6875 28.375 C96.53302073 55.94962247 100.6875 94.44631961 100.6875 130.375 C48.8775 130.375 -2.9325 130.375 -56.3125 130.375 C-47.55059271 152.27976822 -37.15963348 167.67051382 -15.9375 178.25 C-0.198588 184.77589034 21.61628851 186.82412179 37.6875 180.375 C38.66589844 180.01148438 39.64429688 179.64796875 40.65234375 179.2734375 C50.98477736 175.23427682 59.62109096 169.99077166 67.6875 162.375 C71.59601199 163.95931453 74.21117356 166.64135095 77.109375 169.6015625 C77.61422424 170.10924164 78.11907349 170.61692078 78.63922119 171.13998413 C80.24342096 172.75533842 81.84050856 174.37752209 83.4375 176 C84.52688107 177.09941698 85.6167199 178.19838059 86.70703125 179.296875 C89.37251885 181.9843602 92.03165143 184.67799021 94.6875 187.375 C87.47837832 202.50124716 65.57934846 211.05569496 50.6875 216.375 C38.01183375 220.7941667 26.21136532 222.71715947 12.79003906 222.63574219 C10.69046157 222.62501513 8.59173931 222.63570107 6.4921875 222.6484375 C-1.31330737 222.65654182 -8.69858434 222.14361958 -16.3125 220.375 C-17.32183594 220.15199219 -18.33117187 219.92898438 -19.37109375 219.69921875 C-45.53936114 212.69523257 -69.82305584 196.5159084 -84.3125 173.375 C-84.88484375 172.48554688 -85.4571875 171.59609375 -86.046875 170.6796875 C-101.7795353 145.13151789 -107.05185316 114.26116498 -100.1472168 84.88916016 C-95.63495501 67.54189393 -88.13346228 50.99872341 -76.3125 37.375 C-75.64863281 36.57964844 -74.98476563 35.78429687 -74.30078125 34.96484375 C-55.59441923 13.23590977 -28.91527433 -0.3652236 0 0 Z " fill="#FDFDFE" transform="translate(719.3125,240.625)"/>
<path d="M0 0 C10.10044518 8.74255844 17.69328659 18.69955851 21.12109375 31.8359375 C21.12109375 33.1559375 21.12109375 34.4759375 21.12109375 35.8359375 C17.01504939 36.82146493 12.9073633 37.79975167 8.7980957 38.77172852 C7.40408306 39.10248662 6.01051522 39.43512587 4.61743164 39.76977539 C-2.85555242 41.56361333 -10.20095059 43.23224442 -17.87890625 43.8359375 C-18.33330078 42.85753906 -18.33330078 42.85753906 -18.796875 41.859375 C-22.73314128 33.64771797 -26.30292928 27.78193917 -34.87890625 23.8359375 C-35.47832031 23.53558594 -36.07773438 23.23523438 -36.6953125 22.92578125 C-45.62904344 19.16697078 -58.47107039 19.07835592 -67.50390625 22.5234375 C-68.98383934 23.25194157 -70.44443355 24.02156153 -71.87890625 24.8359375 C-72.60464844 25.20976562 -73.33039063 25.58359375 -74.078125 25.96875 C-79.922147 29.23103215 -83.72277133 33.36753273 -85.87890625 39.8359375 C-86.48351331 45.78124025 -85.71026311 48.98394791 -82.4609375 53.9765625 C-75.22144742 62.48519775 -64.12555592 65.7312469 -53.5871582 67.95410156 C-27.25143719 73.83758332 8.47905245 83.74481584 23.9453125 107.65625 C31.04741529 120.8286731 32.28390016 136.66070809 28.49609375 151.0859375 C22.37310386 170.05227205 9.85943706 183.35432055 -7.62890625 192.5859375 C-30.48378488 203.44641456 -59.49095179 207.75852592 -83.89501953 199.58105469 C-105.2786841 191.54968079 -122.468186 178.16547055 -132.12890625 157.18359375 C-132.87890625 154.8359375 -132.87890625 154.8359375 -131.87890625 151.8359375 C-129.37740393 150.50768112 -126.94398738 149.36238444 -124.34375 148.26171875 C-123.59049942 147.93302292 -122.83724884 147.60432709 -122.06117249 147.26567078 C-119.65049285 146.21647738 -117.23367235 145.18235298 -114.81640625 144.1484375 C-113.18251691 143.44043496 -111.54904744 142.7314626 -109.91601562 142.02148438 C-105.90843416 140.28167113 -101.89528171 138.5553466 -97.87890625 136.8359375 C-95.18055303 139.47327788 -93.07974778 141.91807344 -91.12890625 145.1484375 C-85.7211429 153.32046697 -78.77780861 158.998362 -69.10986328 161.44042969 C-53.98582344 164.12164489 -38.43679697 162.9222053 -25.44140625 154.5234375 C-20.43731323 150.78243549 -16.88788461 146.86287259 -14.87890625 140.8359375 C-14.39461674 135.77868474 -14.25698918 131.3059233 -16.25390625 126.5859375 C-26.72431601 115.6169368 -40.47725436 111.63014887 -54.87890625 108.4609375 C-80.40141158 102.54030038 -107.42568616 94.74057331 -122.87890625 71.8359375 C-123.27722656 71.25199219 -123.67554688 70.66804688 -124.0859375 70.06640625 C-131.06660187 58.90257221 -131.66225078 44.97431878 -129.1875 32.29296875 C-125.68562683 20.96682664 -119.10474121 12.2033531 -110.87890625 3.8359375 C-110.26402344 3.20816406 -109.64914063 2.58039063 -109.015625 1.93359375 C-79.95648516 -25.50769248 -30.24910379 -24.69534676 0 0 Z " fill="#FDFDFD" transform="translate(144.87890625,260.1640625)"/>
<path d="M0 0 C1.07878418 0.00539795 2.15756836 0.0107959 3.26904297 0.01635742 C15.64928105 0.24854424 26.48409892 2.55568525 37.875 7.4375 C37.875 17.6675 37.875 27.8975 37.875 38.4375 C33.915 37.7775 29.955 37.1175 25.875 36.4375 C12.82916565 34.32270159 -0.30184274 33.69155442 -12.125 40.4375 C-13.47480686 41.75415371 -14.81206386 43.08407684 -16.125 44.4375 C-16.785 44.4375 -17.445 44.4375 -18.125 44.4375 C-18.4034375 44.99566406 -18.681875 45.55382812 -18.96875 46.12890625 C-19.74795726 47.68468832 -20.539939 49.23412968 -21.34375 50.77734375 C-28.04383105 64.36134953 -27.50090825 78.93494349 -27.75 93.75 C-27.935625 103.4953125 -27.935625 103.4953125 -28.125 113.4375 C-6.345 113.4375 15.435 113.4375 37.875 113.4375 C37.875 125.9775 37.875 138.5175 37.875 151.4375 C16.095 151.4375 -5.685 151.4375 -28.125 151.4375 C-28.125 208.8575 -28.125 266.2775 -28.125 325.4375 C-42.315 325.4375 -56.505 325.4375 -71.125 325.4375 C-71.125 268.0175 -71.125 210.5975 -71.125 151.4375 C-83.005 151.4375 -94.885 151.4375 -107.125 151.4375 C-107.125 141.5375 -107.125 131.6375 -107.125 121.4375 C-102.67 120.303125 -98.215 119.16875 -93.625 118 C-92.23603516 117.64365479 -90.84707031 117.28730957 -89.41601562 116.92016602 C-88.29904297 116.63842529 -87.18207031 116.35668457 -86.03125 116.06640625 C-84.90009766 115.77838135 -83.76894531 115.49035645 -82.60351562 115.19360352 C-78.77391878 114.36118764 -75.01825776 113.87194878 -71.125 113.4375 C-71.14071045 112.32004395 -71.1564209 111.20258789 -71.17260742 110.05126953 C-71.22786137 105.8130648 -71.26168839 101.57489008 -71.28979492 97.33642578 C-71.30466831 95.51931363 -71.32497328 93.70223594 -71.35131836 91.88525391 C-71.71776404 65.9179068 -67.49983444 39.30218588 -49.125 19.4375 C-35.34700692 6.15318094 -19.00015068 -0.18445292 0 0 Z " fill="#FDFDFE" transform="translate(560.125,132.5625)"/>
<path d="M0 0 C15.51 0 31.02 0 47 0 C59.04166667 29.04166667 71.08333333 58.08333333 83.125 87.125 C83.47554947 87.97042862 83.82609894 88.81585724 84.18727112 89.68690491 C84.89640803 91.39720503 85.60550423 93.10752204 86.31455994 94.81785583 C88.07276697 99.05873581 89.83165425 103.29933096 91.59204102 107.53930664 C94.93117956 115.58387559 98.26270211 123.63139964 101.57223511 131.6882019 C103.14525226 135.51647848 104.72189172 139.34325833 106.29882812 143.16992188 C107.05341609 145.00397187 107.80620575 146.83876286 108.55712891 148.67431641 C109.59481627 151.21052311 110.63853071 153.74416921 111.68359375 156.27734375 C111.99111069 157.03357529 112.29862762 157.78980682 112.61546326 158.56895447 C114.28402217 162.61518491 114.28402217 162.61518491 117 166 C117.42595459 164.97269775 117.85190918 163.94539551 118.29077148 162.88696289 C153.12500001 78.87499998 153.12500001 78.87499998 154.18725586 76.31309509 C154.89640892 74.60278057 155.60555605 72.89246359 156.31469727 71.18214417 C158.07294035 66.94160288 159.83128273 62.70110281 161.58984375 58.46069336 C164.92770934 50.41180871 168.26446978 42.36247013 171.59802246 34.3117981 C173.18290229 30.4844065 174.76830948 26.65723345 176.35375977 22.83007812 C177.11362764 20.99538968 177.87323353 19.16059271 178.63256836 17.32568359 C179.68147795 14.79107099 180.73126728 12.25682446 181.78125 9.72265625 C182.09392822 8.96642471 182.40660645 8.21019318 182.72875977 7.43104553 C184.88613392 2.22773215 184.88613392 2.22773215 186 0 C201.51 0 217.02 0 233 0 C220.23873737 32.20699617 206.78565623 64.13052558 193.45483398 96.10473633 C188.0177834 109.14712544 182.59617006 122.19581794 177.1875 135.25 C172.1130399 147.49525259 167.03763018 159.74010355 161.94522095 171.97790527 C161.33477824 173.44526976 160.72470537 174.91278818 160.11508179 176.38049316 C155.16623755 188.29354806 150.08217623 200.14158879 145 212 C125.86 212 106.72 212 87 212 C84.256875 205.35875 81.51375 198.7175 78.6875 191.875 C77.29591675 188.50607544 77.29591675 188.50607544 75.8762207 185.0690918 C71.61842418 174.76126776 67.36119609 164.45320976 63.10546875 154.14453125 C55.23849459 135.08953884 47.36307497 116.03813509 39.46148682 96.99746704 C35.35579005 87.10364218 31.25727686 77.2069121 27.171875 67.3046875 C26.76516068 66.3189978 26.35844635 65.33330811 25.93940735 64.31774902 C24.30646744 60.36004243 22.67357684 56.40231583 21.04159546 52.44421387 C17.02685433 42.70828979 13.00334291 32.97668938 8.91015625 23.2734375 C8.59837433 22.53374725 8.28659241 21.79405701 7.96536255 21.0319519 C6.53396668 17.63799883 5.09830935 14.24595384 3.65527344 10.85693359 C3.16704102 9.70273926 2.67880859 8.54854492 2.17578125 7.359375 C1.75208252 6.36389648 1.32838379 5.36841797 0.8918457 4.34277344 C0 2 0 2 0 0 Z " fill="#FDFDFE" transform="translate(1518,246)"/>
<path d="M0 0 C0.96164062 0.41378906 1.92328125 0.82757813 2.9140625 1.25390625 C21.91696515 10.08183697 33.25415371 25.40650384 40.3515625 44.66796875 C47.35382802 66.55634549 44.51608722 88.54425054 34.5078125 109.05859375 C26.12281166 124.48458812 13.67253832 136.15649518 -3.30859375 141.30859375 C-15.83557815 144.5267015 -29.13760952 144.43834521 -41 139 C-41.92039062 138.5875 -42.84078125 138.175 -43.7890625 137.75 C-61.46082758 128.98878689 -72.00034141 112.87469076 -78.3125 94.6875 C-84.26044542 76.69308284 -82.86711063 52.63195611 -74.4453125 35.6875 C-73.96835938 34.800625 -73.49140625 33.91375 -73 33 C-72.46117187 31.989375 -71.92234375 30.97875 -71.3671875 29.9375 C-63.50797719 15.84026178 -52.95523759 6.33737195 -38 0 C-37.26910156 -0.3196875 -36.53820312 -0.639375 -35.78515625 -0.96875 C-24.95803814 -4.96645515 -10.53948938 -4.63947622 0 0 Z " fill="#0F0E66" transform="translate(327,282)"/>
<path d="M0 0 C6.15746557 0.90885101 11.64913767 4.47158602 16.625 8.0625 C16.625 8.7225 16.625 9.3825 16.625 10.0625 C17.6975 10.165625 18.77 10.26875 19.875 10.375 C23.60329646 11.05852102 24.81523731 11.73717915 27.625 14.0625 C29.77233927 14.76764846 29.77233927 14.76764846 31.625 15.0625 C31.625 15.7225 31.625 16.3825 31.625 17.0625 C32.48544922 17.25005859 32.48544922 17.25005859 33.36328125 17.44140625 C35.68326154 18.07849928 37.66041386 18.93001346 39.8125 20 C40.50730469 20.33902344 41.20210937 20.67804688 41.91796875 21.02734375 C43.625 22.0625 43.625 22.0625 44.625 24.0625 C46.60388961 24.78943904 48.60454558 25.46066251 50.625 26.0625 C50.625 26.7225 50.625 27.3825 50.625 28.0625 C52.3575 28.18625 52.3575 28.18625 54.125 28.3125 C58.84627498 28.87736683 62.5356739 30.72418853 66.625 33.0625 C66.625 33.7225 66.625 34.3825 66.625 35.0625 C67.16125 35.18625 67.6975 35.31 68.25 35.4375 C71.10401595 36.18855683 73.86303841 37.01909229 76.625 38.0625 C76.955 38.7225 77.285 39.3825 77.625 40.0625 C79.60388961 40.78943904 81.60454558 41.46066251 83.625 42.0625 C83.625 42.7225 83.625 43.3825 83.625 44.0625 C84.24375 44.206875 84.8625 44.35125 85.5 44.5 C87.625 45.0625 87.625 45.0625 89.625 46.0625 C89.875 51.6875 89.875 51.6875 87.625 55.0625 C83.62808322 57.06095839 81.12773737 58.0625 76.625 58.0625 C76.625 58.7225 76.625 59.3825 76.625 60.0625 C73.16 60.5575 73.16 60.5575 69.625 61.0625 C69.625 61.7225 69.625 62.3825 69.625 63.0625 C68.635 63.0625 67.645 63.0625 66.625 63.0625 C66.625 63.7225 66.625 64.3825 66.625 65.0625 C65.305 65.0625 63.985 65.0625 62.625 65.0625 C62.625 65.7225 62.625 66.3825 62.625 67.0625 C60.796875 68.5 60.796875 68.5 58.375 70.0625 C57.58609375 70.578125 56.7971875 71.09375 55.984375 71.625 C50.3423913 75.0625 50.3423913 75.0625 46.625 75.0625 C46.625 75.7225 46.625 76.3825 46.625 77.0625 C44.87807205 77.73717562 43.12731475 78.40194156 41.375 79.0625 C40.40046875 79.43375 39.4259375 79.805 38.421875 80.1875 C35.625 81.0625 35.625 81.0625 31.625 81.0625 C31.625 81.7225 31.625 82.3825 31.625 83.0625 C30.635 83.0625 29.645 83.0625 28.625 83.0625 C28.625 83.7225 28.625 84.3825 28.625 85.0625 C27.046924 85.90574672 25.4622958 86.73673918 23.875 87.5625 C22.99328125 88.0265625 22.1115625 88.490625 21.203125 88.96875 C18.625 90.0625 18.625 90.0625 14.625 90.0625 C13.965 91.3825 13.305 92.7025 12.625 94.0625 C10.975 94.0625 9.325 94.0625 7.625 94.0625 C7.625 94.7225 7.625 95.3825 7.625 96.0625 C4.25476236 98.06859383 2.28030536 99.09959276 -1.6875 98.875 C-2.574375 98.606875 -3.46125 98.33875 -4.375 98.0625 C-6.05167953 94.70914094 -5.52218772 90.9261654 -5.52026367 87.23828125 C-5.52362228 86.32436615 -5.5269809 85.41045105 -5.53044128 84.46884155 C-5.53996697 81.43754734 -5.54189509 78.40630826 -5.54296875 75.375 C-5.5461798 73.27514625 -5.54954375 71.17529272 -5.55305481 69.07543945 C-5.55904984 64.67040488 -5.56089428 60.26538993 -5.56030273 55.86035156 C-5.560201 50.20397363 -5.57386348 44.5477209 -5.59107494 38.89137268 C-5.60216871 34.55407121 -5.60422277 30.21680029 -5.60369301 25.87948608 C-5.6048767 23.79340177 -5.60932009 21.70731676 -5.61702538 19.62124634 C-5.62677407 16.70964667 -5.62396778 13.79832243 -5.61791992 10.88671875 C-5.62634918 9.58376358 -5.62634918 9.58376358 -5.63494873 8.25448608 C-5.59171471 0.10355027 -5.59171471 0.10355027 0 0 Z " fill="#1A4DA7" transform="translate(1316.375,282.9375)"/>
<path d="M0 0 C1.26638306 0.00737183 1.26638306 0.00737183 2.55834961 0.01489258 C9.0233259 0.13591306 14.77091796 0.88998252 20.8125 3.3125 C21.6478125 3.64121094 22.483125 3.96992188 23.34375 4.30859375 C36.865209 10.33899753 46.57759065 21.91956123 51.8125 35.5234375 C54.1680234 42.09313947 54.8125 46.0709587 54.8125 53.3125 C17.8525 53.3125 -19.1075 53.3125 -57.1875 53.3125 C-52.34263554 35.54799698 -43.89572291 18.20272921 -27.47167969 8.27539062 C-18.44827662 3.27796225 -10.36474415 -0.07089991 0 0 Z " fill="#0F0E66" transform="translate(719.1875,279.6875)"/>
<path d="M0 0 C0.74426239 -0.00095673 1.48852478 -0.00191345 2.25534058 -0.00289917 C3.82371099 -0.00357802 5.39208425 -0.00174433 6.96044922 0.00244141 C9.3656236 0.00780901 11.77061254 0.00247872 14.17578125 -0.00390625 C15.70052125 -0.00324571 17.22526113 -0.00196506 18.75 0 C19.47083771 -0.00202423 20.19167542 -0.00404846 20.93435669 -0.00613403 C26.0122431 0.0178403 26.0122431 0.0178403 28.2421875 1.1328125 C30.28171988 1.28881073 32.32412158 1.40826636 34.3671875 1.5078125 C39.13142913 1.83764461 42.96298008 2.46783747 47.3203125 4.3671875 C50.8292744 5.76506663 54.54586957 6.40552772 58.2421875 7.1328125 C54.00974686 8.43651439 51.48476733 7.3847213 47.2421875 6.1328125 C44.25043374 5.6945301 41.25431097 5.39236055 38.2421875 5.1328125 C38.2421875 4.4728125 38.2421875 3.8128125 38.2421875 3.1328125 C30.56672339 3.24016862 22.89135168 3.35277199 15.21606541 3.47215176 C11.65245782 3.52741277 8.08884207 3.58083768 4.52514648 3.63012695 C0.43203505 3.68681782 -3.6609186 3.75138568 -7.75390625 3.81640625 C-9.68199379 3.84147499 -9.68199379 3.84147499 -11.64903259 3.86705017 C-12.83018143 3.88699539 -14.01133026 3.90694061 -15.22827148 3.92749023 C-16.27417953 3.94303452 -17.32008759 3.9585788 -18.39768982 3.97459412 C-20.71421947 3.86981074 -20.71421947 3.86981074 -21.7578125 5.1328125 C-24.33678944 5.45518462 -26.91713071 5.64548554 -29.5078125 5.8515625 C-31.72446602 5.89481915 -31.72446602 5.89481915 -32.7578125 7.1328125 C-33.7890625 7.2771875 -34.8203125 7.4215625 -35.8828125 7.5703125 C-40.48691298 8.23864967 -44.7415418 9.42529082 -49.12890625 10.96484375 C-50.33740234 11.38830078 -50.33740234 11.38830078 -51.5703125 11.8203125 C-52.31925781 12.09230469 -53.06820313 12.36429688 -53.83984375 12.64453125 C-55.7578125 13.1328125 -55.7578125 13.1328125 -57.7578125 12.1328125 C-50.57213245 8.79478382 -43.93348242 6.51357384 -36.05859375 5.4921875 C-33.79937137 5.370875 -33.79937137 5.370875 -32.7578125 4.1328125 C-30.75822886 4.09200467 -28.75735996 4.09026894 -26.7578125 4.1328125 C-26.7578125 3.4728125 -26.7578125 2.8128125 -26.7578125 2.1328125 C-25.72140625 2.07222656 -24.685 2.01164063 -23.6171875 1.94921875 C-22.24738377 1.86477879 -20.87759275 1.78013253 -19.5078125 1.6953125 C-18.82589844 1.65599609 -18.14398437 1.61667969 -17.44140625 1.57617188 C-13.68390548 1.37689271 -13.68390548 1.37689271 -10.01318359 0.62133789 C-6.69145029 -0.09816723 -3.3821774 -0.00955135 0 0 Z " fill="#0B1C77" transform="translate(1340.7578125,157.8671875)"/>
<path d="M0 0 C0.33 1.32 0.66 2.64 1 4 C0.34 4 -0.32 4 -1 4 C-1 5.65 -1 7.3 -1 9 C-1.66 9 -2.32 9 -3 9 C-3.06058594 9.92683594 -3.12117188 10.85367187 -3.18359375 11.80859375 C-3.26738281 13.00613281 -3.35117188 14.20367187 -3.4375 15.4375 C-3.51871094 16.63246094 -3.59992188 17.82742188 -3.68359375 19.05859375 C-4 22 -4 22 -5 23 C-5.165 24.155 -5.33 25.31 -5.5 26.5 C-6 30 -6 30 -7 31 C-7.20604085 32.32781878 -7.3662959 33.66295895 -7.5 35 C-7.88888889 38.88888889 -7.88888889 38.88888889 -9 40 C-9.09831146 41.49870048 -9.12798456 43.00198539 -9.12939453 44.50390625 C-9.13254669 45.46159912 -9.13569885 46.41929199 -9.13894653 47.40600586 C-9.1369223 48.44764893 -9.13489807 49.48929199 -9.1328125 50.5625 C-9.13424759 52.1549353 -9.13424759 52.1549353 -9.13571167 53.77954102 C-9.13639364 56.02913472 -9.13453819 58.27873037 -9.13037109 60.52832031 C-9.1250231 63.98507071 -9.13031554 67.44169117 -9.13671875 70.8984375 C-9.13605797 73.07812529 -9.13477682 75.257813 -9.1328125 77.4375 C-9.13483673 78.47914307 -9.13686096 79.52078613 -9.13894653 80.59399414 C-9.13579437 81.55168701 -9.13264221 82.50937988 -9.12939453 83.49609375 C-9.12859894 84.34357178 -9.12780334 85.1910498 -9.12698364 86.06420898 C-9.21319708 88.0065713 -9.21319708 88.0065713 -8 89 C-7.67762788 91.57897694 -7.48732696 94.15931821 -7.28125 96.75 C-7.23799335 98.96665352 -7.23799335 98.96665352 -6 100 C-5.85884839 102.67058851 -5.95752893 105.32432238 -6 108 C-6.33 108 -6.66 108 -7 108 C-9.33286677 99.44977204 -11.39461918 91.25431701 -11.82421875 82.35546875 C-11.91473343 79.84788317 -11.91473343 79.84788317 -13 77 C-13.09447646 75.043446 -13.13071717 73.08383255 -13.1328125 71.125 C-13.13410156 69.97515625 -13.13539062 68.8253125 -13.13671875 67.640625 C-13.13285156 66.43921875 -13.12898438 65.2378125 -13.125 64 C-13.13080078 62.19789063 -13.13080078 62.19789063 -13.13671875 60.359375 C-13.13542969 59.20953125 -13.13414063 58.0596875 -13.1328125 56.875 C-13.13168457 55.82054687 -13.13055664 54.76609375 -13.12939453 53.6796875 C-13 51 -13 51 -12 48 C-11.84813389 46.1269846 -11.72682024 44.25140151 -11.625 42.375 C-11.26341398 37.60550822 -10.41264068 33.60705446 -8.7578125 29.140625 C-7.19571185 24.72809326 -6.35641749 20.09926632 -5.57421875 15.4921875 C-4.55056325 9.67070318 -2.87497463 5.17495433 0 0 Z " fill="#0E1E78" transform="translate(1185,269)"/>
<path d="M0 0 C0.66 0.33 1.32 0.66 2 1 C1.67 1.33 1.34 1.66 1 2 C0.9047178 4.98298214 0.87447825 7.94276345 0.88647461 10.92602539 C0.88632858 11.86251419 0.88618256 12.79900299 0.8860321 13.76387024 C0.88673163 16.87515539 0.89452585 19.98638149 0.90234375 23.09765625 C0.90420779 25.24857043 0.90563176 27.39948503 0.90663147 29.55039978 C0.91045775 35.22381758 0.92028898 40.89720995 0.93133545 46.57061768 C0.9415472 52.35501766 0.94612858 58.13942173 0.95117188 63.92382812 C0.96191115 75.28256328 0.97898889 86.64127953 1 98 C5.7897321 98.23428313 5.7897321 98.23428313 10 96 C10.99 96 11.98 96 13 96 C13 95.34 13 94.68 13 94 C13.969375 93.71125 14.93875 93.4225 15.9375 93.125 C19.10664203 92.35785318 19.10664203 92.35785318 20 90 C22.3984375 88.96484375 22.3984375 88.96484375 25.375 87.9375 C26.84066406 87.42509766 26.84066406 87.42509766 28.3359375 86.90234375 C30.22233089 86.26340405 32.11054199 85.62981934 34 85 C34 84.34 34 83.68 34 83 C34.99 83 35.98 83 37 83 C37 82.34 37 81.68 37 81 C39.64 80.67 42.28 80.34 45 80 C43.01388388 81.98611612 41.55856751 82.91454712 39 84 C38.01 84 37.02 84 36 84 C35.835 84.598125 35.67 85.19625 35.5 85.8125 C33.20193012 89.16385192 29.84211661 89.99572398 26 91 C25.01 91 24.02 91 23 91 C23 91.66 23 92.32 23 93 C20.35261084 94.4606285 19.10551666 95 16 95 C16 95.66 16 96.32 16 97 C12.535 97.99 12.535 97.99 9 99 C9 99.66 9 100.32 9 101 C7.72125 101.061875 6.4425 101.12375 5.125 101.1875 C4.04605469 101.23970703 4.04605469 101.23970703 2.9453125 101.29296875 C2.30335937 101.19628906 1.66140625 101.09960938 1 101 C-1.03102953 97.95345571 -1.24985505 97.38007292 -1.24723816 93.96347046 C-1.25143265 93.14461868 -1.25562714 92.32576691 -1.25994873 91.48210144 C-1.25432922 90.58743668 -1.24870972 89.69277191 -1.24291992 88.77099609 C-1.24481827 87.82606796 -1.24671661 86.88113983 -1.24867249 85.90757751 C-1.25238194 82.77944687 -1.24167493 79.65154756 -1.23046875 76.5234375 C-1.2292771 74.35535713 -1.22882375 72.18727624 -1.2290802 70.01919556 C-1.22751513 65.47467825 -1.21922248 60.93023969 -1.20581055 56.38574219 C-1.18880047 50.54660107 -1.18499676 44.7075464 -1.18575573 38.86838341 C-1.18548447 34.39215258 -1.18001079 29.91594084 -1.17275429 25.43971634 C-1.1695619 23.28582529 -1.16759889 21.13193207 -1.16686058 18.97803879 C-1.16470418 15.97539292 -1.15597581 12.97284075 -1.14526367 9.97021484 C-1.14571686 9.07150162 -1.14617004 8.17278839 -1.14663696 7.24684143 C-1.11447507 1.11447507 -1.11447507 1.11447507 0 0 Z " fill="#5089C4" transform="translate(1311,283)"/>
<path d="M0 0 C1.32 0.33 2.64 0.66 4 1 C0.39027224 2.99484955 -3.11124371 4.3837258 -7.0625 5.5 C-10.80234129 6.56772748 -13.71056709 7.89841786 -17 10 C-21.71123957 11.83409326 -26.20514022 12.53441578 -31.1875 13.0625 C-36.66835195 13.64037744 -36.66835195 13.64037744 -42 15 C-43.95689225 15.10372328 -45.91711006 15.14856849 -47.87670898 15.16113281 C-49.08483749 15.17074036 -50.292966 15.1803479 -51.53770447 15.19024658 C-52.84397293 15.19449646 -54.15024139 15.19874634 -55.49609375 15.203125 C-56.84985862 15.2088787 -58.20362347 15.2146364 -59.55738831 15.22039795 C-62.3944639 15.23089646 -65.23151124 15.23674693 -68.06860352 15.24023438 C-71.70145745 15.24572299 -75.33393732 15.26976317 -78.96667385 15.29820633 C-81.76252837 15.31684011 -84.55829281 15.32203864 -87.35420418 15.32357025 C-89.34396323 15.32806373 -91.33367403 15.34670403 -93.323349 15.36553955 C-95.14027 15.3610379 -95.14027 15.3610379 -96.99389648 15.35644531 C-98.05962387 15.36009094 -99.12535126 15.36373657 -100.22337341 15.36749268 C-103.33720288 14.95537045 -104.70379322 14.08858609 -107 12 C-105.54176788 11.9729957 -104.08339325 11.95360213 -102.625 11.9375 C-101.81289062 11.92589844 -101.00078125 11.91429687 -100.1640625 11.90234375 C-98 12 -98 12 -96 13 C-94.33600717 13.11887956 -92.66750725 13.17711944 -90.99951172 13.20532227 C-89.43811966 13.2352401 -89.43811966 13.2352401 -87.84518433 13.26576233 C-86.1545134 13.29083107 -86.1545134 13.29083107 -84.4296875 13.31640625 C-83.27832306 13.33718735 -82.12695862 13.35796844 -80.94070435 13.37937927 C-77.2521986 13.44491665 -73.56361997 13.50377928 -69.875 13.5625 C-67.37889862 13.60568123 -64.8828047 13.64929538 -62.38671875 13.69335938 C-56.25789019 13.80060231 -50.12898867 13.90236089 -44 14 C-44 13.34 -44 12.68 -44 12 C-37.73 11.67 -31.46 11.34 -25 11 C-25 10.34 -25 9.68 -25 9 C-23.27143541 8.5186659 -21.54211929 8.04003029 -19.8125 7.5625 C-18.84957031 7.29566406 -17.88664062 7.02882813 -16.89453125 6.75390625 C-14.27336303 6.07119982 -11.661065 5.50107805 -9 5 C-9 4.34 -9 3.68 -9 3 C-4.545 2.505 -4.545 2.505 0 2 C0 1.34 0 0.68 0 0 Z " fill="#123690" transform="translate(1417,491)"/>
<path d="M0 0 C0.66 0.33 1.32 0.66 2 1 C1.01 3.31 0.02 5.62 -1 8 C-1.66 8 -2.32 8 -3 8 C-3 8.99 -3 9.98 -3 11 C-3.66 11 -4.32 11 -5 11 C-5.27972656 11.88042969 -5.55945312 12.76085937 -5.84765625 13.66796875 C-6.88496683 16.66737866 -8.10220344 19.43807655 -9.4375 22.3125 C-16.65267366 39.87155093 -15.69076176 59.33123592 -16 78 C-16.33 78 -16.66 78 -17 78 C-17.07522269 73.12942731 -17.12909757 68.25920663 -17.16479492 63.38818359 C-17.17970574 61.73773291 -17.20004166 60.08732057 -17.22631836 58.43701172 C-17.50886955 40.20968983 -15.04166083 20.24461559 -4 5 C-3.01 4.34 -2.02 3.68 -1 3 C-0.67 2.01 -0.34 1.02 0 0 Z " fill="#3167B4" transform="translate(1252,272)"/>
<path d="M0 0 C0.99 0.495 0.99 0.495 2 1 C2.82161931 3.46485794 3.50407868 5.85911879 4.125 8.375 C4.39763672 9.37466797 4.39763672 9.37466797 4.67578125 10.39453125 C7.27791676 20.7443785 5.89094029 31.53939497 5.125 42.0625 C5.04636719 43.28388672 4.96773437 44.50527344 4.88671875 45.76367188 C4.80292969 46.92576172 4.71914062 48.08785156 4.6328125 49.28515625 C4.55949707 50.33582275 4.48618164 51.38648926 4.41064453 52.46899414 C4 55 4 55 2 57 C2.01047363 55.69329346 2.02094727 54.38658691 2.03173828 53.0402832 C2.06797839 48.18549344 2.09091517 43.3307156 2.10986328 38.47583008 C2.11991169 36.37587472 2.13355266 34.27593331 2.15087891 32.17602539 C2.17517801 29.1550756 2.18649482 26.13431105 2.1953125 23.11328125 C2.20563507 22.17664139 2.21595764 21.24000153 2.22659302 20.27497864 C2.22737886 15.69431473 2.0834841 12.18324543 0 8 C-0.23608151 5.29450593 -0.09234983 2.72432002 0 0 Z " fill="#568FC8" transform="translate(1455,300)"/>
<path d="M0 0 C1.67098755 0.00157104 1.67098755 0.00157104 3.37573242 0.00317383 C5.15040894 0.02287231 5.15040894 0.02287231 6.9609375 0.04296875 C8.17048096 0.05158936 9.38002441 0.06020996 10.6262207 0.0690918 C17.59378728 0.13806844 24.56161459 0.24313758 31.5234375 0.54296875 C32.20937988 0.56528564 32.89532227 0.58760254 33.60205078 0.6105957 C37.97447275 0.85133432 41.50818969 1.88651482 45.51293945 3.51098633 C47.74923245 4.39358382 49.98239363 4.93990515 52.3359375 5.41796875 C53.0990625 5.57652344 53.8621875 5.73507813 54.6484375 5.8984375 C55.2053125 6.00800781 55.7621875 6.11757812 56.3359375 6.23046875 C52.10349686 7.53417064 49.57851733 6.48237755 45.3359375 5.23046875 C42.34418374 4.79218635 39.34806097 4.4900168 36.3359375 4.23046875 C36.3359375 3.57046875 36.3359375 2.91046875 36.3359375 2.23046875 C21.1559375 2.23046875 5.9759375 2.23046875 -9.6640625 2.23046875 C-5.69990631 0.24839065 -4.25193122 -0.01754722 0 0 Z " fill="#0E2F8A" transform="translate(1342.6640625,158.76953125)"/>
<path d="M0 0 C-5.625 3 -5.625 3 -9 3 C-9.165 3.598125 -9.33 4.19625 -9.5 4.8125 C-11.79806988 8.16385192 -15.15788339 8.99572398 -19 10 C-19.99 10 -20.98 10 -22 10 C-22 10.66 -22 11.32 -22 12 C-24.64738916 13.4606285 -25.89448334 14 -29 14 C-29 14.66 -29 15.32 -29 16 C-31.31 16.66 -33.62 17.32 -36 18 C-36 18.66 -36 19.32 -36 20 C-38.64 20 -41.28 20 -44 20 C-44.33 19.01 -44.66 18.02 -45 17 C-43.906875 17.04125 -42.81375 17.0825 -41.6875 17.125 C-37.91107771 17.32074666 -37.91107771 17.32074666 -35 15 C-34.01 15 -33.02 15 -32 15 C-32 14.34 -32 13.68 -32 13 C-31.030625 12.71125 -30.06125 12.4225 -29.0625 12.125 C-25.89335797 11.35785318 -25.89335797 11.35785318 -25 9 C-22.6015625 7.96484375 -22.6015625 7.96484375 -19.625 6.9375 C-18.15933594 6.42509766 -18.15933594 6.42509766 -16.6640625 5.90234375 C-14.77766911 5.26340405 -12.88945801 4.62981934 -11 4 C-11 3.34 -11 2.68 -11 2 C-10.01 2 -9.02 2 -8 2 C-8 1.34 -8 0.68 -8 0 C-4.94736336 -0.98120464 -3.05263664 -0.98120464 0 0 Z " fill="#71ACD6" transform="translate(1356,364)"/>
<path d="M0 0 C1.17033016 3.74175981 0.48917814 6.16582679 -0.453125 9.94140625 C-1.69050986 16.86192302 -1.71250093 23.98653581 -2 31 C-2.66 31 -3.32 31 -4 31 C-3.34 41.56 -2.68 52.12 -2 63 C-2.66 62.67 -3.32 62.34 -4 62 C-5.5130736 54.30854253 -5.24035484 46.37519264 -5.25 38.5625 C-5.25167175 37.85056488 -5.25334351 37.13862976 -5.25506592 36.40512085 C-5.25681482 23.99161887 -5.01544297 11.57913139 0 0 Z " fill="#75B0D9" transform="translate(1241,296)"/>
<path d="M0 0 C2.39614575 0.14165893 4.79182897 0.28818841 7.1875 0.4375 C7.86103516 0.47681641 8.53457031 0.51613281 9.22851562 0.55664062 C12.90656008 0.78988247 16.39579326 1.26222614 20 2 C30.67420242 2.74390714 41.40683755 1.1723658 52 0 C51.67 0.66 51.34 1.32 51 2 C48.69 2 46.38 2 44 2 C44 2.66 44 3.32 44 4 C32.12 4 20.24 4 8 4 C8 3.34 8 2.68 8 2 C5.69 2 3.38 2 1 2 C0.67 1.34 0.34 0.68 0 0 Z " fill="#5B94CA" transform="translate(1322,441)"/>
<path d="M0 0 C0.66 0.33 1.32 0.66 2 1 C0.71034824 2.37562854 -0.62689293 3.70766393 -2 5 C-2.66 5 -3.32 5 -4 5 C-4 5.66 -4 6.32 -4 7 C-4.66 7 -5.32 7 -6 7 C-6 7.66 -6 8.32 -6 9 C-6.66 9 -7.32 9 -8 9 C-8.26570801 9.58950439 -8.53141602 10.17900879 -8.80517578 10.78637695 C-10.81796527 14.51542524 -13.89117902 17.2188716 -16.875 20.1875 C-17.81279297 21.14946289 -17.81279297 21.14946289 -18.76953125 22.13085938 C-19.68412109 23.04641602 -19.68412109 23.04641602 -20.6171875 23.98046875 C-21.17003418 24.53629639 -21.72288086 25.09212402 -22.29248047 25.66479492 C-24.18806555 27.14705898 -25.64943843 27.59091373 -28 28 C-27.4225 27.484375 -26.845 26.96875 -26.25 26.4375 C-23.53063881 23.49152537 -21.89843408 20.52566329 -20 17 C-19.34 17 -18.68 17 -18 17 C-18 16.34 -18 15.68 -18 15 C-14.53846154 12 -14.53846154 12 -12 12 C-11.34 10.68 -10.68 9.36 -10 8 C-9.01 8 -8.02 8 -7 8 C-7 7.34 -7 6.68 -7 6 C-6.34 6 -5.68 6 -5 6 C-5 5.34 -5 4.68 -5 4 C-3.37373596 2.61767557 -1.7074998 1.28062485 0 0 Z " fill="#113691" transform="translate(1243,192)"/>
<path d="M0 0 C0.33 1.32 0.66 2.64 1 4 C0.34 4 -0.32 4 -1 4 C-1.1546875 5.5159375 -1.1546875 5.5159375 -1.3125 7.0625 C-2.02141853 11.12266978 -3.32554902 14.24922981 -5 18 C-5.67188497 20.33183607 -6.33915417 22.66501142 -7 25 C-7.3403125 25.5465625 -7.680625 26.093125 -8.03125 26.65625 C-9.79252517 30.91739961 -9.39954355 35.620063 -9.47851562 40.18164062 C-9.66026374 45.48779913 -10.61813974 49.24263111 -13 54 C-13.33 53.34 -13.66 52.68 -14 52 C-13.70222656 51.16082031 -13.40445312 50.32164062 -13.09765625 49.45703125 C-11.73051702 45.15127247 -11.58508185 41.17614807 -11.4375 36.6875 C-11.1222561 28.1222561 -11.1222561 28.1222561 -10 27 C-9.63239269 24.67182036 -9.29758419 22.3381615 -9 20 C-8.34 20 -7.68 20 -7 20 C-7 18.68 -7 17.36 -7 16 C-6.34 16 -5.68 16 -5 16 C-5.061875 15.360625 -5.12375 14.72125 -5.1875 14.0625 C-4.92439224 9.76507326 -3.47182579 6.02123832 -2 2 C-1.34 2 -0.68 2 0 2 C0 1.34 0 0.68 0 0 Z " fill="#15318B" transform="translate(1259,99)"/>
<path d="M0 0 C0.495 0.99 0.495 0.99 1 2 C-11.54 2 -24.08 2 -37 2 C-27.42174078 -4.38550614 -10.58231224 -3.80963241 0 0 Z " fill="#1C287E" transform="translate(1370,43)"/>
<path d="M0 0 C0.33 0 0.66 0 1 0 C1.02505615 1.145896 1.0501123 2.29179199 1.07592773 3.47241211 C1.16983106 7.70853598 1.27009275 11.94448928 1.37231445 16.18041992 C1.4157282 18.01664247 1.45739839 19.85290708 1.49731445 21.68920898 C1.55486169 24.32288311 1.61859998 26.95634421 1.68359375 29.58984375 C1.70030624 30.41588608 1.71701874 31.24192841 1.73423767 32.09300232 C1.47807433 35.85476753 1.47807433 35.85476753 3 39 C3.32237212 41.57897694 3.51267304 44.15931821 3.71875 46.75 C3.76200665 48.96665352 3.76200665 48.96665352 5 50 C5.14115161 52.67058851 5.04247107 55.32432238 5 58 C4.67 58 4.34 58 4 58 C-0.05795312 45.22682625 -0.49215348 33.32757913 -0.25 20 C-0.22987835 18.04949777 -0.21163772 16.0989752 -0.1953125 14.1484375 C-0.15182541 9.43177676 -0.08312037 4.71612188 0 0 Z " fill="#112F8A" transform="translate(1174,319)"/>
<path d="M0 0 C0.33 0.66 0.66 1.32 1 2 C0.51966309 2.26449951 0.03932617 2.52899902 -0.45556641 2.80151367 C-6.30664868 6.2147628 -10.72233649 10.42851269 -15.375 15.3125 C-16.77411463 16.77128649 -18.17753734 18.22595755 -19.5859375 19.67578125 C-20.1948584 20.31427002 -20.8037793 20.95275879 -21.43115234 21.6105957 C-23 23 -23 23 -25 23 C-25 22.34 -25 21.68 -25 21 C-24.34 21 -23.68 21 -23 21 C-22.67 19.68 -22.34 18.36 -22 17 C-21.34 17 -20.68 17 -20 17 C-19.78085938 16.43667969 -19.56171875 15.87335938 -19.3359375 15.29296875 C-17.56914036 12.2604836 -15.34551046 10.5188121 -12.625 8.3125 C-11.66851563 7.52488281 -10.71203125 6.73726562 -9.7265625 5.92578125 C-7.31837057 4.22486632 -5.86886137 3.40109673 -3 3 C-3 2.34 -3 1.68 -3 1 C-2.01 0.67 -1.02 0.34 0 0 Z " fill="#172278" transform="translate(1299,56)"/>
<path d="M0 0 C8.91 0 17.82 0 27 0 C27 0.33 27 0.66 27 1 C22.05 1.33 17.1 1.66 12 2 C12 2.33 12 2.66 12 3 C4.08 3.33 -3.84 3.66 -12 4 C-10 2 -10 2 -7.6171875 1.8046875 C-6.71226563 1.82789063 -5.80734375 1.85109375 -4.875 1.875 C-3.50988281 1.90207031 -3.50988281 1.90207031 -2.1171875 1.9296875 C-1.41851563 1.95289063 -0.71984375 1.97609375 0 2 C0 1.34 0 0.68 0 0 Z " fill="#6FAAD5" transform="translate(1333,220)"/>
<path d="M0 0 C0.33 1.32 0.66 2.64 1 4 C0.34 4 -0.32 4 -1 4 C-1 5.65 -1 7.3 -1 9 C-1.66 9 -2.32 9 -3 9 C-3.06058594 9.92683594 -3.12117188 10.85367187 -3.18359375 11.80859375 C-3.30927734 13.60490234 -3.30927734 13.60490234 -3.4375 15.4375 C-3.51871094 16.63246094 -3.59992188 17.82742188 -3.68359375 19.05859375 C-4 22 -4 22 -5 23 C-5.165 24.155 -5.33 25.31 -5.5 26.5 C-6 30 -6 30 -7 31 C-7.27953219 33.0587768 -7.44734351 35.11728432 -7.62109375 37.1875 C-7.74613281 37.785625 -7.87117188 38.38375 -8 39 C-8.99 39.495 -8.99 39.495 -10 40 C-9.85966889 38.02043559 -9.7125877 36.04134859 -9.5625 34.0625 C-9.48128906 32.96035156 -9.40007812 31.85820312 -9.31640625 30.72265625 C-9 28 -9 28 -8 27 C-7.6470131 25.69780464 -7.34313503 24.38218045 -7.0625 23.0625 C-6.79759766 21.84433594 -6.79759766 21.84433594 -6.52734375 20.6015625 C-6.18103091 18.89308582 -5.8598471 17.17928485 -5.56640625 15.4609375 C-4.55003151 9.65051202 -2.86865284 5.16357511 0 0 Z " fill="#0F2D88" transform="translate(1185,269)"/>
<path d="M0 0 C0.33 0 0.66 0 1 0 C2.87801034 8.38473866 3.30610653 16.42505232 3.25 25 C3.25773437 26.21300781 3.26546875 27.42601562 3.2734375 28.67578125 C3.27085938 29.83464844 3.26828125 30.99351562 3.265625 32.1875 C3.26336914 33.23292969 3.26111328 34.27835938 3.25878906 35.35546875 C3 38 3 38 1 41 C1.33 32.75 1.66 24.5 2 16 C1.34 16 0.68 16 0 16 C0 10.72 0 5.44 0 0 Z " fill="#103390" transform="translate(1481,117)"/>
<path d="M0 0 C0.33 0 0.66 0 1 0 C1.04254356 1.99954746 1.04080783 4.00041636 1 6 C0.67 6.33 0.34 6.66 0 7 C-0.20931897 9.16296273 -0.36797069 11.3309471 -0.5 13.5 C-0.88888889 19.88888889 -0.88888889 19.88888889 -2 21 C-2.23653523 23.52596259 -2.42173692 26.03107207 -2.5625 28.5625 C-2.60568359 29.27341797 -2.64886719 29.98433594 -2.69335938 30.71679688 C-2.79971777 32.47761912 -2.90038846 34.2387832 -3 36 C-2.34 36 -1.68 36 -1 36 C-1.33 37.32 -1.66 38.64 -2 40 C-4 38 -4 38 -4.22705078 35.84521484 C-4.21657715 34.97590332 -4.20610352 34.1065918 -4.1953125 33.2109375 C-4.18886719 32.26992187 -4.18242188 31.32890625 -4.17578125 30.359375 C-4.15902344 29.37453125 -4.14226562 28.3896875 -4.125 27.375 C-4.11597656 26.38242188 -4.10695313 25.38984375 -4.09765625 24.3671875 C-4.07404116 21.91121866 -4.04110799 19.45572832 -4 17 C-3.34 17 -2.68 17 -2 17 C-2 13.04 -2 9.08 -2 5 C-1.34 5 -0.68 5 0 5 C0 3.35 0 1.7 0 0 Z " fill="#11247E" transform="translate(1223,111)"/>
<path d="M0 0 C1.32 0.33 2.64 0.66 4 1 C0.39027224 2.99484955 -3.11124371 4.3837258 -7.0625 5.5 C-10.80234129 6.56772748 -13.71056709 7.89841786 -17 10 C-21.16730297 11.68465439 -24.51232782 12.21369868 -29 12 C-27.68 11.67 -26.36 11.34 -25 11 C-25 10.34 -25 9.68 -25 9 C-23.27143541 8.5186659 -21.54211929 8.04003029 -19.8125 7.5625 C-18.84957031 7.29566406 -17.88664062 7.02882813 -16.89453125 6.75390625 C-14.27336303 6.07119982 -11.661065 5.50107805 -9 5 C-9 4.34 -9 3.68 -9 3 C-4.545 2.505 -4.545 2.505 0 2 C0 1.34 0 0.68 0 0 Z " fill="#0F2C86" transform="translate(1417,491)"/>
<path d="M0 0 C-2.03399104 2.03399104 -5.9939761 1.49952083 -8.75 1.71875 C-10.96665352 1.76200665 -10.96665352 1.76200665 -12 3 C-13.03125 3.144375 -14.0625 3.28875 -15.125 3.4375 C-19.72910048 4.10583717 -23.9837293 5.29247832 -28.37109375 6.83203125 C-29.57958984 7.25548828 -29.57958984 7.25548828 -30.8125 7.6875 C-31.56144531 7.95949219 -32.31039063 8.23148438 -33.08203125 8.51171875 C-35 9 -35 9 -37 8 C-29.81431995 4.66197132 -23.17566992 2.38076134 -15.30078125 1.359375 C-13.04155887 1.2380625 -13.04155887 1.2380625 -12 0 C-10.36154566 -0.26007212 -8.71316296 -0.45922323 -7.0625 -0.625 C-6.16660156 -0.72039062 -5.27070312 -0.81578125 -4.34765625 -0.9140625 C-2 -1 -2 -1 0 0 Z " fill="#10308A" transform="translate(1320,162)"/>
<path d="M0 0 C3.65938172 1.43164111 7.23988068 2.98934296 10.8125 4.625 C12.27623047 5.29402344 12.27623047 5.29402344 13.76953125 5.9765625 C14.50558594 6.31429688 15.24164062 6.65203125 16 7 C16 7.66 16 8.32 16 9 C16.63808594 9.19335938 17.27617188 9.38671875 17.93359375 9.5859375 C18.75988281 9.84632813 19.58617187 10.10671875 20.4375 10.375 C21.26121094 10.63023437 22.08492187 10.88546875 22.93359375 11.1484375 C25 12 25 12 26 14 C23.69 13.67 21.38 13.34 19 13 C19 12.34 19 11.68 19 11 C18.05125 10.896875 17.1025 10.79375 16.125 10.6875 C13 10 13 10 11 7 C8.36569555 5.54943019 8.36569555 5.54943019 5.375 4.3125 C4.37210938 3.87550781 3.36921875 3.43851562 2.3359375 2.98828125 C1.56507812 2.66214844 0.79421875 2.33601563 0 2 C0 1.34 0 0.68 0 0 Z " fill="#65A0D0" transform="translate(1348,298)"/>
<path d="M0 0 C2.09749995 2.35968744 2.96905704 3.54616994 3.1875 6.75 C3.0946875 7.86375 3.0946875 7.86375 3 9 C3.66 9 4.32 9 5 9 C7.11161731 18.41002278 7.11161731 18.41002278 8 23 C2.75037764 18.27533988 1.85288948 13.94318386 1.21875 7.16015625 C0.97290359 4.73242294 0.53729907 2.37946733 0 0 Z " fill="#74B0D8" transform="translate(1239,359)"/>
<path d="M0 0 C0.66 0.33 1.32 0.66 2 1 C1.01 3.31 0.02 5.62 -1 8 C-1.66 8 -2.32 8 -3 8 C-3 8.99 -3 9.98 -3 11 C-3.66 11 -4.32 11 -5 11 C-5.28875 11.94875 -5.5775 12.8975 -5.875 13.875 C-7 17 -7 17 -9 19 C-9.25904145 15.04436707 -8.65893935 12.73780318 -6.6875 9.3125 C-6.25824219 8.54550781 -5.82898437 7.77851563 -5.38671875 6.98828125 C-4 5 -4 5 -1 3 C-0.67 2.01 -0.34 1.02 0 0 Z " fill="#4D85C3" transform="translate(1252,272)"/>
<path d="M0 0 C1.53445094 3.06890187 0.54984289 5.70094266 0 9 C-0.66 9 -1.32 9 -2 9 C-2 10.65 -2 12.3 -2 14 C-2.66 14 -3.32 14 -4 14 C-4 15.98 -4 17.96 -4 20 C-5.32 20 -6.64 20 -8 20 C-8 19.34 -8 18.68 -8 18 C-7.01 18 -6.02 18 -5 18 C-5 16.02 -5 14.04 -5 12 C-4.34 12 -3.68 12 -3 12 C-2.814375 10.4221875 -2.814375 10.4221875 -2.625 8.8125 C-2.08859218 5.54041229 -1.36119965 2.99463924 0 0 Z " fill="#172F86" transform="translate(1452,168)"/>
<path d="M0 0 C0.33 0 0.66 0 1 0 C1.39988571 4.53203802 0.06784352 7.01748655 -2 11 C-2.80388257 13.36830109 -3.54301422 15.74677678 -4.25390625 18.14453125 C-5 20 -5 20 -7 21 C-6.67 18.69 -6.34 16.38 -6 14 C-5.34 14 -4.68 14 -4 14 C-3.87625 13.319375 -3.7525 12.63875 -3.625 11.9375 C-2.75772415 7.8613035 -1.87069003 3.74138006 0 0 Z " fill="#102E87" transform="translate(1516,377)"/>
<path d="M0 0 C2.36979167 0.7109375 4.73958333 1.421875 7.109375 2.1328125 C8.06328125 2.41898437 9.0171875 2.70515625 10 3 C12.72135417 3.81640625 15.44270833 4.6328125 18.1640625 5.44921875 C18.76992187 5.63097656 19.37578125 5.81273437 20 6 C15.94662333 7.62551867 12.33615843 6.35258195 8.3125 5.25 C7.62349609 5.07984375 6.93449219 4.9096875 6.22460938 4.734375 C4.23828125 4.203125 4.23828125 4.203125 1 3 C0.67 2.01 0.34 1.02 0 0 Z " fill="#5D97CC" transform="translate(1301,434)"/>
<path d="M0 0 C0.66 0 1.32 0 2 0 C2 0.66 2 1.32 2 2 C2.66 2 3.32 2 4 2 C4 2.99 4 3.98 4 5 C4.66 5 5.32 5 6 5 C6 5.66 6 6.32 6 7 C6.66 7 7.32 7 8 7 C8.8638129 8.45264038 9.71580454 9.9123163 10.5625 11.375 C11.27599609 12.59316406 11.27599609 12.59316406 12.00390625 13.8359375 C12.49697266 14.90714844 12.49697266 14.90714844 13 16 C12.67 16.66 12.34 17.32 12 18 C11.15801693 16.90241493 10.32669329 15.79664683 9.5 14.6875 C9.0359375 14.07261719 8.571875 13.45773438 8.09375 12.82421875 C7 11 7 11 7 8 C6.34 8 5.68 8 5 8 C5 7.34 5 6.68 5 6 C4.34 6 3.68 6 3 6 C3 5.34 3 4.68 3 4 C2.34 4 1.68 4 1 4 C0.67 2.68 0.34 1.36 0 0 Z " fill="#0F2D88" transform="translate(1482,222)"/>
<path d="M0 0 C7.54728918 0.28696917 14.29073674 1.34165686 21 5 C21.33 5.66 21.66 6.32 22 7 C19.69 6.67 17.38 6.34 15 6 C15 5.34 15 4.68 15 4 C14.195625 3.87625 13.39125 3.7525 12.5625 3.625 C8.34141271 2.88445837 4.17664983 1.95598874 0 1 C0 0.67 0 0.34 0 0 Z " fill="#558EC7" transform="translate(1368,222)"/>
<path d="M0 0 C0 0.66 0 1.32 0 2 C-0.99 2 -1.98 2 -3 2 C-3 2.66 -3 3.32 -3 4 C-6.82517513 6.39073445 -10.59665524 6.55966552 -15 7 C-15 6.34 -15 5.68 -15 5 C-11.49159219 3.03529163 -7.86030593 2.0723072 -4 1 C-2 0 -2 0 0 0 Z " fill="#4D86C3" transform="translate(1399,432)"/>
<path d="M0 0 C2.87525669 -0.05425013 5.74947646 -0.09379277 8.625 -0.125 C9.43324219 -0.14175781 10.24148438 -0.15851563 11.07421875 -0.17578125 C15.80093815 -0.21420986 19.55387702 0.17262906 24 2 C24 2.33 24 2.66 24 3 C21.36 3 18.72 3 16 3 C16 2.34 16 1.68 16 1 C10.72 1 5.44 1 0 1 C0 0.67 0 0.34 0 0 Z " fill="#3166B3" transform="translate(1344,219)"/>
<path d="M0 0 C5.7607103 1.29322068 9.33195882 3.37988643 14 7 C12.68 7.33 11.36 7.66 10 8 C10 7.34 10 6.68 10 6 C9.0925 5.7525 8.185 5.505 7.25 5.25 C3.89648511 3.96018658 2.32291764 2.68028958 0 0 Z " fill="#6FAAD6" transform="translate(1323,285)"/>
<path d="M0 0 C0 0.99 0 1.98 0 3 C-4.455 4.485 -4.455 4.485 -9 6 C-9 6.66 -9 7.32 -9 8 C-10.32 7.67 -11.64 7.34 -13 7 C-11.21190303 5.82786955 -9.41940875 4.66244474 -7.625 3.5 C-6.62726563 2.8503125 -5.62953125 2.200625 -4.6015625 1.53125 C-2 0 -2 0 0 0 Z " fill="#538CC6" transform="translate(1412,424)"/>
<path d="M0 0 C5.60461531 0.42089996 10.72086547 0.91613111 16 3 C16 3.66 16 4.32 16 5 C13.03 4.67 10.06 4.34 7 4 C7 3.34 7 2.68 7 2 C5.02 2 3.04 2 1 2 C0.67 1.34 0.34 0.68 0 0 Z " fill="#22388C" transform="translate(1370,43)"/>
<path d="M0 0 C1.98 0.66 3.96 1.32 6 2 C6 2.66 6 3.32 6 4 C6.804375 4.28875 7.60875 4.5775 8.4375 4.875 C11 6 11 6 12 8 C10.35 7.67 8.7 7.34 7 7 C7 6.34 7 5.68 7 5 C5.68 5 4.36 5 3 5 C1.25 2.5 1.25 2.5 0 0 Z " fill="#5B95CA" transform="translate(1399,232)"/>
<path d="M0 0 C5.77378925 0.4811491 9.95859836 2.18467181 15 5 C15 5.33 15 5.66 15 6 C13.35 6 11.7 6 10 6 C10 5.34 10 4.68 10 4 C9.36191406 3.87882813 8.72382812 3.75765625 8.06640625 3.6328125 C7.24011719 3.46523437 6.41382813 3.29765625 5.5625 3.125 C4.73878906 2.96257812 3.91507813 2.80015625 3.06640625 2.6328125 C2.38449219 2.42398438 1.70257812 2.21515625 1 2 C0.67 1.34 0.34 0.68 0 0 Z " fill="#102882" transform="translate(1400,166)"/>
<path d="M0 0 C0.33 0 0.66 0 1 0 C1 2.64 1 5.28 1 8 C0.34 8 -0.32 8 -1 8 C-1.33 9.65 -1.66 11.3 -2 13 C-3.18771723 9.57056481 -2.80226223 7.62215325 -1.5625 4.25 C-1.27503906 3.45078125 -0.98757813 2.6515625 -0.69140625 1.828125 C-0.46324219 1.22484375 -0.23507812 0.6215625 0 0 Z " fill="#5F99CC" transform="translate(1456,357)"/>
<path d="M0 0 C0 0.99 0 1.98 0 3 C-6.75 7 -6.75 7 -9 7 C-9 6.34 -9 5.68 -9 5 C-7.5390625 3.7109375 -7.5390625 3.7109375 -5.625 2.375 C-4.99851562 1.92898437 -4.37203125 1.48296875 -3.7265625 1.0234375 C-2 0 -2 0 0 0 Z " fill="#6DA8D4" transform="translate(1287,238)"/>
<path d="M0 0 C-0.58007812 0.12117188 -1.16015625 0.24234375 -1.7578125 0.3671875 C-5.40922568 1.15049396 -8.90147988 1.96596578 -12.4375 3.1875 C-15 4 -15 4 -17 3 C-15.35 2.67 -13.7 2.34 -12 2 C-12 1.34 -12 0.68 -12 0 C-3.96428571 -1.20535714 -3.96428571 -1.20535714 0 0 Z " fill="#263D8F" transform="translate(1336,44)"/>
<path d="M0 0 C3.23360633 1.61680316 4.63931677 4.77102114 6 8 C5.75 10.4375 5.75 10.4375 5 12 C0.57142857 4.71428571 0.57142857 4.71428571 0 0 Z " fill="#477FC0" transform="translate(1241,370)"/>
<path d="M0 0 C5.29158974 1.40071493 7.77478044 4.85487245 11 9 C8.6875 8.8125 8.6875 8.8125 6 8 C4.375 5.5 4.375 5.5 3 3 C2.01 2.67 1.02 2.34 0 2 C0 1.34 0 0.68 0 0 Z " fill="#66A0D0" transform="translate(1416,244)"/>
<path d="M0 0 C0.99 0.495 0.99 0.495 2 1 C2 1.66 2 2.32 2 3 C2.66 3 3.32 3 4 3 C4.33 5.97 4.66 8.94 5 12 C3 11 3 11 2.1484375 8.49609375 C1.89320312 7.48675781 1.63796875 6.47742188 1.375 5.4375 C1.11460938 4.42558594 0.85421875 3.41367187 0.5859375 2.37109375 C0.39257812 1.58863281 0.19921875 0.80617188 0 0 Z " fill="#66A0D0" transform="translate(1446,279)"/>
<path d="M0 0 C-4.74354436 2.22656164 -8.72250715 3.46148032 -14 4 C-13.67 3.34 -13.34 2.68 -13 2 C-11.68 2 -10.36 2 -9 2 C-9 1.34 -9 0.68 -9 0 C-2.25 -1.125 -2.25 -1.125 0 0 Z " fill="#5F99CC" transform="translate(1319,225)"/>
<path d="M0 0 C2.97 0.33 5.94 0.66 9 1 C9 1.66 9 2.32 9 3 C6.36 3 3.72 3 1 3 C0.67 2.01 0.34 1.02 0 0 Z " fill="#80BCDE" transform="translate(1311,381)"/>
<path d="M0 0 C0.33 0 0.66 0 1 0 C0.40380045 4.86896303 -0.56976822 9.32790951 -2 14 C-3.94218842 9.14452895 -1.56295128 4.68885384 0 0 Z " fill="#95D3EA" transform="translate(1456,352)"/>
<path d="M0 0 C2.475 0.99 2.475 0.99 5 2 C5 2.66 5 3.32 5 4 C6.32 4.33 7.64 4.66 9 5 C6 6 6 6 2.8125 4.5625 C1.884375 4.046875 0.95625 3.53125 0 3 C0 2.01 0 1.02 0 0 Z " fill="#457DBF" transform="translate(1378,314)"/>
<path d="M0 0 C-4.62197306 2.21854707 -7.76824163 3.38281159 -13 3 C-11.68 2.67 -10.36 2.34 -9 2 C-9 1.34 -9 0.68 -9 0 C-2.25 -1.125 -2.25 -1.125 0 0 Z " fill="#11237A" transform="translate(1401,500)"/>
<path d="M0 0 C-3.3 1.32 -6.6 2.64 -10 4 C-10.33 3.34 -10.66 2.68 -11 2 C-10.01 2 -9.02 2 -8 2 C-8 1.34 -8 0.68 -8 0 C-4.63458162 -1.08174162 -3.70152678 -0.92538169 0 0 Z " fill="#5D96CB" transform="translate(1356,364)"/>
<path d="M0 0 C2.79872437 2.52788007 4.45773019 4.20411134 5 8 C2 7 2 7 0 4 C0 2.68 0 1.36 0 0 Z " fill="#437ABD" transform="translate(1252,391)"/>
<path d="M0 0 C0.99 0.495 0.99 0.495 2 1 C2 1.66 2 2.32 2 3 C2.66 3 3.32 3 4 3 C4.33 5.31 4.66 7.62 5 10 C3 9 3 9 2.1484375 6.93359375 C1.89320312 6.10988281 1.63796875 5.28617187 1.375 4.4375 C1.11460938 3.61121094 0.85421875 2.78492188 0.5859375 1.93359375 C0.39257812 1.29550781 0.19921875 0.65742188 0 0 Z " fill="#102C86" transform="translate(1184,394)"/>
</svg>
