<?xml version="1.0" encoding="UTF-8"?>
<!DOCTYPE svg PUBLIC "-//W3C//DTD SVG 1.1//EN" "http://www.w3.org/Graphics/SVG/1.1/DTD/svg11.dtd">
<svg xmlns="http://www.w3.org/2000/svg" version="1.1" width="200" height="95" viewBox="0 0 1750 600" style="shape-rendering:geometricPrecision; text-rendering:geometricPrecision; image-rendering:optimizeQuality; fill-rule:evenodd; clip-rule:evenodd" xmlns:xlink="http://www.w3.org/1999/xlink">
<g><path style="opacity:1" fill="#0e0d66" d="M -0.5,-0.5 C 586.833,-0.5 1174.17,-0.5 1761.5,-0.5C 1761.5,172.833 1761.5,346.167 1761.5,519.5C 1174.17,519.5 586.833,519.5 -0.5,519.5C -0.5,346.167 -0.5,172.833 -0.5,-0.5 Z"/></g>
<g><path style="opacity:1" fill="#194ba5" d="M 1412.5,493.5 C 1405.36,494.828 1398.69,497.328 1392.5,501C 1365.38,504.687 1338.04,505.52 1310.5,503.5C 1237.6,483.765 1192.76,437.099 1176,363.5C 1174.76,357.565 1174.26,351.565 1174.5,345.5C 1174.23,329.447 1174.9,313.447 1176.5,297.5C 1183.07,270.312 1194.57,245.312 1211,222.5C 1221.83,212.669 1232.33,202.503 1242.5,192C 1252.5,184.175 1263.5,178.342 1275.5,174.5C 1289.67,168.629 1304.34,164.129 1319.5,161C 1338.5,160.333 1357.5,160.333 1376.5,161C 1385.37,163.461 1394.37,165.627 1403.5,167.5C 1414.28,171.539 1424.61,176.539 1434.5,182.5C 1438.44,183.556 1442.44,184.223 1446.5,184.5C 1461.51,144.044 1455.01,107.377 1427,74.5C 1396.58,44.2887 1360.74,35.1221 1319.5,47C 1307.3,50.4544 1296.3,56.1211 1286.5,64C 1281.05,69.2877 1275.71,74.7877 1270.5,80.5C 1255.85,99.5564 1248.35,121.223 1248,145.5C 1243.8,156.859 1236.3,160.359 1225.5,156C 1220.25,150.969 1218.25,144.803 1219.5,137.5C 1220.47,112.086 1228.3,89.0864 1243,68.5C 1250.01,59.4792 1257.84,50.9792 1266.5,43C 1273.86,38.6557 1280.86,33.8224 1287.5,28.5C 1296.49,24.5 1305.49,20.5 1314.5,16.5C 1384.45,3.74409 1436.95,27.7441 1472,88.5C 1473.65,95.7808 1475.98,102.781 1479,109.5C 1484.03,129.701 1484.69,150.034 1481,170.5C 1479.04,182.516 1474.87,193.683 1468.5,204C 1468.67,204.833 1468.83,205.667 1469,206.5C 1520.62,261.151 1534.28,324.485 1510,396.5C 1502.36,413.787 1492.69,429.787 1481,444.5C 1476.53,447.632 1472.7,451.466 1469.5,456C 1467.27,457.603 1464.93,459.103 1462.5,460.5C 1460.17,464.167 1457.17,467.167 1453.5,469.5C 1452.68,470.386 1451.68,470.719 1450.5,470.5C 1450.61,472.903 1449.61,474.736 1447.5,476C 1440.87,479.23 1434.53,482.897 1428.5,487C 1423.41,489.957 1418.08,492.123 1412.5,493.5 Z"/></g>
<g><path style="opacity:1" fill="#fdfdfe" d="M 532.5,200.5 C 531.504,215.324 531.171,230.324 531.5,245.5C 553.5,245.5 575.5,245.5 597.5,245.5C 597.5,258.167 597.5,270.833 597.5,283.5C 575.5,283.5 553.5,283.5 531.5,283.5C 531.5,341.5 531.5,399.5 531.5,457.5C 517.167,457.5 502.833,457.5 488.5,457.5C 488.5,399.5 488.5,341.5 488.5,283.5C 476.5,283.5 464.5,283.5 452.5,283.5C 452.5,273.5 452.5,263.5 452.5,253.5C 464.473,250.705 476.473,248.039 488.5,245.5C 488.333,232.163 488.5,218.829 489,205.5C 490.734,181.202 500.567,161.036 518.5,145C 534.768,133.611 552.768,129.611 572.5,133C 580.758,134.231 588.758,136.398 596.5,139.5C 597.499,149.812 597.832,160.145 597.5,170.5C 588.109,168.463 578.609,167.13 569,166.5C 547.385,167.613 535.218,178.947 532.5,200.5 Z"/></g>
<g><path style="opacity:1" fill="#113590" d="M 1403.5,167.5 C 1394.37,165.627 1385.37,163.461 1376.5,161C 1357.5,160.333 1338.5,160.333 1319.5,161C 1304.34,164.129 1289.67,168.629 1275.5,174.5C 1280.38,170.981 1285.71,168.148 1291.5,166C 1300.02,164.457 1308.35,162.457 1316.5,160C 1336.84,158.14 1357.17,158.14 1377.5,160C 1386.36,162.033 1395.03,164.533 1403.5,167.5 Z"/></g>
<g><path style="opacity:1" fill="#619acd" d="M 1365.5,221.5 C 1355.19,220.463 1344.86,220.296 1334.5,221C 1333.94,221.383 1333.61,221.883 1333.5,222.5C 1329.13,222.467 1324.8,222.8 1320.5,223.5C 1324.55,221.832 1328.88,220.666 1333.5,220C 1343.5,219.333 1353.5,219.333 1363.5,220C 1364.42,220.278 1365.08,220.778 1365.5,221.5 Z"/></g>
<g><path style="opacity:1" fill="#a6e4f3" d="M 1413.5,241.5 C 1417.19,244.53 1420.86,247.53 1424.5,250.5C 1424.54,251.583 1424.87,252.583 1425.5,253.5C 1430.85,259.573 1436.18,265.573 1441.5,271.5C 1444.16,273.484 1445.83,276.151 1446.5,279.5C 1446.34,280.873 1446.51,282.207 1447,283.5C 1449.5,288.862 1452,294.195 1454.5,299.5C 1457.72,318.334 1458.39,337.334 1456.5,356.5C 1454.88,365.112 1452.05,373.445 1448,381.5C 1443.74,389.024 1439.24,396.357 1434.5,403.5C 1429.17,406.833 1424.83,411.167 1421.5,416.5C 1414.78,422.516 1407.45,427.516 1399.5,431.5C 1394.92,432.197 1390.92,433.864 1387.5,436.5C 1380.07,438.313 1372.74,440.313 1365.5,442.5C 1353.49,443.811 1341.49,443.811 1329.5,442.5C 1325.88,442.845 1322.55,442.178 1319.5,440.5C 1312.66,437.443 1305.66,434.776 1298.5,432.5C 1291.14,429.659 1284.48,425.659 1278.5,420.5C 1275.28,416.224 1271.28,412.891 1266.5,410.5C 1263.24,406.06 1259.74,401.727 1256,397.5C 1252.8,392.435 1250.13,387.102 1248,381.5C 1244.53,378.568 1242.7,374.902 1242.5,370.5C 1241.9,367.873 1241.4,365.207 1241,362.5C 1240.29,361.619 1239.46,360.953 1238.5,360.5C 1237.85,358.565 1237.52,356.565 1237.5,354.5C 1237.81,350.958 1237.48,347.625 1236.5,344.5C 1236.33,335.494 1236.5,326.494 1237,317.5C 1238.73,310.274 1240.23,302.941 1241.5,295.5C 1241.81,290.595 1243.48,286.261 1246.5,282.5C 1248.07,282.063 1249.24,281.063 1250,279.5C 1251.4,276.933 1252.57,274.267 1253.5,271.5C 1257.26,263.968 1262.42,257.635 1269,252.5C 1271.08,247.859 1274.58,244.693 1279.5,243C 1280.17,242 1280.83,241 1281.5,240C 1288.19,236.632 1294.85,233.299 1301.5,230C 1307.02,225.822 1313.35,223.656 1320.5,223.5C 1324.8,222.8 1329.13,222.467 1333.5,222.5C 1344.83,221.516 1356.16,221.683 1367.5,223C 1376.2,225.445 1384.7,228.278 1393,231.5C 1394.17,232.009 1395,232.842 1395.5,234C 1401.87,235.838 1407.87,238.338 1413.5,241.5 Z"/></g>
<g><path style="opacity:1" fill="#8fcbe6" d="M 1365.5,221.5 C 1370.39,222.611 1375.39,223.611 1380.5,224.5C 1384.81,227.057 1389.48,229.057 1394.5,230.5C 1401.37,233.236 1407.71,236.902 1413.5,241.5C 1407.87,238.338 1401.87,235.838 1395.5,234C 1395,232.842 1394.17,232.009 1393,231.5C 1384.7,228.278 1376.2,225.445 1367.5,223C 1356.16,221.683 1344.83,221.516 1333.5,222.5C 1333.61,221.883 1333.94,221.383 1334.5,221C 1344.86,220.296 1355.19,220.463 1365.5,221.5 Z"/></g>
<g><path style="opacity:1" fill="#477dbf" d="M 1380.5,224.5 C 1383.72,225.505 1387.05,226.339 1390.5,227C 1392.32,227.74 1393.65,228.907 1394.5,230.5C 1389.48,229.057 1384.81,227.057 1380.5,224.5 Z"/></g>
<g><path style="opacity:1" fill="#fdfcfd" d="M 293.5,240.5 C 324.017,237.28 349.85,246.613 371,268.5C 372.865,261.072 375.032,253.739 377.5,246.5C 389.815,245.501 402.149,245.168 414.5,245.5C 414.5,316.167 414.5,386.833 414.5,457.5C 402.167,457.5 389.833,457.5 377.5,457.5C 375.526,449.467 373.359,441.467 371,433.5C 359.512,447.839 344.678,457.006 326.5,461C 270.698,467.154 231.531,444.654 209,393.5C 191.56,340.41 204.06,295.91 246.5,260C 260.864,250.145 276.53,243.645 293.5,240.5 Z"/></g>
<g><path style="opacity:1" fill="#fdfdfe" d="M 819.5,353.5 C 819.5,359.167 819.5,364.833 819.5,370.5C 766.997,370.168 714.664,370.501 662.5,371.5C 671.401,399.899 690.401,417.399 719.5,424C 745.6,427.315 768.266,420.148 787.5,402.5C 796.652,411.152 805.652,419.986 814.5,429C 776.574,462.125 733.574,470.792 685.5,455C 633.59,429.693 611.09,388.193 618,330.5C 628.386,282.115 657.553,252.282 705.5,241C 766.114,237.273 802.948,265.106 816,324.5C 817.822,334.098 818.989,343.765 819.5,353.5 Z"/></g>
<g><path style="opacity:1" fill="#fdfdfe" d="M 940.5,240.5 C 965.035,238.398 985.869,246.064 1003,263.5C 1005.42,266.663 1007.58,269.996 1009.5,273.5C 1034.81,238.342 1066.81,230.842 1105.5,251C 1125.03,265.89 1135.87,285.724 1138,310.5C 1138.5,359.499 1138.67,408.499 1138.5,457.5C 1125.17,457.5 1111.83,457.5 1098.5,457.5C 1098.97,408.467 1098.47,359.467 1097,310.5C 1092.06,290.179 1079.06,279.845 1058,279.5C 1038.91,281.246 1027.24,291.579 1023,310.5C 1021.54,359.476 1021.04,408.476 1021.5,457.5C 1008.17,457.5 994.833,457.5 981.5,457.5C 981.966,409.137 981.466,360.804 980,312.5C 976.155,290.737 963.155,279.737 941,279.5C 921.499,281.325 909.832,291.992 906,311.5C 904.539,360.14 904.039,408.807 904.5,457.5C 890.167,457.5 875.833,457.5 861.5,457.5C 861.5,386.833 861.5,316.167 861.5,245.5C 873.186,245.168 884.852,245.501 896.5,246.5C 899.009,252.192 902.009,257.526 905.5,262.5C 915.196,251.76 926.863,244.426 940.5,240.5 Z"/></g>
<g><path style="opacity:1" fill="#fdfdfd" d="M 80.5,241.5 C 103.637,239.939 124.637,245.772 143.5,259C 155.339,268.521 162.672,280.687 165.5,295.5C 152.465,298.009 139.465,300.676 126.5,303.5C 120.692,286.574 108.692,278.574 90.5,279.5C 77.0665,279.774 66.5665,285.441 59,296.5C 56.1631,306.671 59.3298,314.504 68.5,320C 72.7136,322.274 77.0469,324.274 81.5,326C 100.251,330.272 118.584,335.938 136.5,343C 174.709,361.305 184.209,389.472 165,427.5C 148.816,448.514 127.316,460.014 100.5,462C 66.368,465.858 38.868,454.358 18,427.5C 15.1021,422.727 13.1021,417.727 12,412.5C 23.6667,407.167 35.3333,401.833 47,396.5C 51.7797,406.28 58.9464,413.78 68.5,419C 71.7735,420.202 75.1069,421.202 78.5,422C 94.2578,425.15 108.591,422.15 121.5,413C 129.086,406.91 131.919,399.077 130,389.5C 124.904,381.416 117.737,375.916 108.5,373C 90.9194,368.883 73.5861,363.883 56.5,358C 44.8667,353.273 34.7,346.439 26,337.5C 7.44116,308.485 11.2745,282.651 37.5,260C 50.4545,250.411 64.7878,244.245 80.5,241.5 Z"/></g>
<g><path style="opacity:1" fill="#4b458a" d="M 532.5,200.5 C 532.5,215.167 532.5,229.833 532.5,244.5C 554.34,244.169 576.006,244.503 597.5,245.5C 575.5,245.5 553.5,245.5 531.5,245.5C 531.171,230.324 531.504,215.324 532.5,200.5 Z"/></g>
<g><path style="opacity:1" fill="#fdfdfe" d="M 1517.5,245.5 C 1533.18,245.167 1548.85,245.501 1564.5,246.5C 1587.57,302.207 1610.74,357.874 1634,413.5C 1657.17,357.833 1680.33,302.167 1703.5,246.5C 1719.16,245.334 1734.82,245.167 1750.5,246C 1721.17,316.333 1691.83,386.667 1662.5,457C 1643.16,457.833 1623.82,457.666 1604.5,456.5C 1575.3,386.223 1546.3,315.89 1517.5,245.5 Z"/></g>
<g><path style="opacity:1" fill="#71aad5" d="M 1424.5,250.5 C 1427.9,253.1 1430.9,256.1 1433.5,259.5C 1436.79,263.102 1439.46,267.102 1441.5,271.5C 1436.18,265.573 1430.85,259.573 1425.5,253.5C 1424.87,252.583 1424.54,251.583 1424.5,250.5 Z"/></g>
<g><path style="opacity:1" fill="#0f0d66" d="M 298.5,278.5 C 331.903,277.788 354.403,293.121 366,324.5C 373.379,350.663 370.046,375.33 356,398.5C 335.295,424.626 309.795,430.793 279.5,417C 260.965,404.796 249.798,387.63 246,365.5C 241.548,335.174 250.715,310.008 273.5,290C 281.328,284.899 289.662,281.065 298.5,278.5 Z"/></g>
<g><path style="opacity:1" fill="#0f0e66" d="M 709.5,279.5 C 743.03,277.173 764.196,292.173 773,324.5C 773.497,327.146 773.664,329.813 773.5,332.5C 736.161,332.833 698.827,332.5 661.5,331.5C 668.254,305.42 684.254,288.087 709.5,279.5 Z"/></g>
<g><path style="opacity:1" fill="#69a2d1" d="M 1253.5,271.5 C 1252.57,274.267 1251.4,276.933 1250,279.5C 1249.24,281.063 1248.07,282.063 1246.5,282.5C 1247.34,277.704 1249.67,274.038 1253.5,271.5 Z"/></g>
<g><path style="opacity:1" fill="#1b4da6" d="M 1319.5,283.5 C 1323.29,287.42 1327.96,289.92 1333.5,291C 1337.26,293.64 1341.26,295.807 1345.5,297.5C 1364.57,307.873 1383.91,318.039 1403.5,328C 1405.02,329.897 1405.68,332.064 1405.5,334.5C 1401.85,335.599 1398.85,337.599 1396.5,340.5C 1378.61,348.443 1361.28,357.443 1344.5,367.5C 1335.56,371.846 1326.56,376.346 1317.5,381C 1315.45,381.49 1313.45,381.323 1311.5,380.5C 1311.67,379.508 1311.34,378.842 1310.5,378.5C 1310.18,346.79 1310.51,315.123 1311.5,283.5C 1312.37,282.475 1313.54,281.808 1315,281.5C 1316.41,282.414 1317.91,283.08 1319.5,283.5 Z"/></g>
<g><path style="opacity:1" fill="#413c84" d="M 597.5,283.5 C 576.006,284.497 554.34,284.831 532.5,284.5C 532.832,342.336 532.499,400.002 531.5,457.5C 531.5,399.5 531.5,341.5 531.5,283.5C 553.5,283.5 575.5,283.5 597.5,283.5 Z"/></g>
<g><path style="opacity:1" fill="#4e87c3" d="M 1311.5,283.5 C 1310.51,315.123 1310.18,346.79 1310.5,378.5C 1309.34,347.336 1309.17,316.003 1310,284.5C 1310.38,283.944 1310.88,283.611 1311.5,283.5 Z"/></g>
<g><path style="opacity:1" fill="#5a91c8" d="M 1446.5,279.5 C 1450.97,285.314 1453.64,291.981 1454.5,299.5C 1452,294.195 1449.5,288.862 1447,283.5C 1446.51,282.207 1446.34,280.873 1446.5,279.5 Z"/></g>
<g><path style="opacity:1" fill="#679fd0" d="M 1319.5,283.5 C 1324.38,286.677 1329.72,289.01 1335.5,290.5C 1339.28,292.487 1342.61,294.821 1345.5,297.5C 1341.26,295.807 1337.26,293.64 1333.5,291C 1327.96,289.92 1323.29,287.42 1319.5,283.5 Z"/></g>
<g><path style="opacity:1" fill="#6ea8d4" d="M 1241.5,295.5 C 1240.23,302.941 1238.73,310.274 1237,317.5C 1236.5,326.494 1236.33,335.494 1236.5,344.5C 1235.51,334.347 1235.17,324.014 1235.5,313.5C 1237.37,307.46 1239.37,301.46 1241.5,295.5 Z"/></g>
<g><path style="opacity:1" fill="#396eb7" d="M 1235.5,313.5 C 1235.17,324.014 1235.51,334.347 1236.5,344.5C 1237.48,347.625 1237.81,350.958 1237.5,354.5C 1236.03,353.653 1235.2,352.32 1235,350.5C 1234.17,337.993 1234.34,325.66 1235.5,313.5 Z"/></g>
<g><path style="opacity:1" fill="#6199cd" d="M 1454.5,299.5 C 1455.12,299.611 1455.62,299.944 1456,300.5C 1459.82,318.354 1460.49,336.354 1458,354.5C 1457.72,355.416 1457.22,356.082 1456.5,356.5C 1458.39,337.334 1457.72,318.334 1454.5,299.5 Z"/></g>
<g><path style="opacity:1" fill="#10308b" d="M 1176.5,297.5 C 1174.9,313.447 1174.23,329.447 1174.5,345.5C 1173.18,341.724 1172.51,337.557 1172.5,333C 1172.39,320.85 1173.72,309.017 1176.5,297.5 Z"/></g>
<g><path style="opacity:1" fill="#71aad5" d="M 1405.5,334.5 C 1403.62,338.03 1400.62,340.03 1396.5,340.5C 1398.85,337.599 1401.85,335.599 1405.5,334.5 Z"/></g>
<g><path style="opacity:1" fill="#5d94ca" d="M 1238.5,360.5 C 1239.46,360.953 1240.29,361.619 1241,362.5C 1241.4,365.207 1241.9,367.873 1242.5,370.5C 1239.08,368.109 1237.75,364.775 1238.5,360.5 Z"/></g>
<g><path style="opacity:1" fill="#4e498d" d="M 819.5,353.5 C 820.49,359.31 820.823,365.31 820.5,371.5C 767.833,371.5 715.167,371.5 662.5,371.5C 714.664,370.501 766.997,370.168 819.5,370.5C 819.5,364.833 819.5,359.167 819.5,353.5 Z"/></g>
<g><path style="opacity:1" fill="#74aed7" d="M 1344.5,367.5 C 1343.28,369.451 1341.62,370.951 1339.5,372C 1332.56,375.532 1325.56,378.865 1318.5,382C 1316.5,382.667 1314.5,382.667 1312.5,382C 1311.94,381.617 1311.61,381.117 1311.5,380.5C 1313.45,381.323 1315.45,381.49 1317.5,381C 1326.56,376.346 1335.56,371.846 1344.5,367.5 Z"/></g>
<g><path style="opacity:1" fill="#5288c4" d="M 1434.5,403.5 C 1430.5,408.167 1426.17,412.5 1421.5,416.5C 1424.83,411.167 1429.17,406.833 1434.5,403.5 Z"/></g>
<g><path style="opacity:1" fill="#5b92c9" d="M 1266.5,410.5 C 1271.28,412.891 1275.28,416.224 1278.5,420.5C 1275,417.847 1271.33,415.347 1267.5,413C 1266.75,412.329 1266.41,411.496 1266.5,410.5 Z"/></g>
<g><path style="opacity:1" fill="#5086c3" d="M 1399.5,431.5 C 1396.25,434.64 1392.25,436.307 1387.5,436.5C 1390.92,433.864 1394.92,432.197 1399.5,431.5 Z"/></g>
<g><path style="opacity:1" fill="#72acd7" d="M 1298.5,432.5 C 1305.66,434.776 1312.66,437.443 1319.5,440.5C 1311.88,439.177 1304.88,436.51 1298.5,432.5 Z"/></g>
<g><path style="opacity:1" fill="#3f72b9" d="M 1387.5,436.5 C 1385.52,439.012 1382.85,440.512 1379.5,441C 1374.9,442.122 1370.23,442.622 1365.5,442.5C 1372.74,440.313 1380.07,438.313 1387.5,436.5 Z"/></g>
<g><path style="opacity:1" fill="#467cbe" d="M 1329.5,442.5 C 1341.49,443.811 1353.49,443.811 1365.5,442.5C 1360.04,443.829 1354.21,444.496 1348,444.5C 1342.17,444.333 1336.33,444.167 1330.5,444C 1329.94,443.617 1329.61,443.117 1329.5,442.5 Z"/></g>
<g><path style="opacity:1" fill="#11328c" d="M 1412.5,493.5 C 1411.94,494.79 1410.94,495.623 1409.5,496C 1403.91,497.278 1398.57,499.278 1393.5,502C 1366.93,505.219 1340.27,506.219 1313.5,505C 1312.26,504.768 1311.26,504.268 1310.5,503.5C 1338.04,505.52 1365.38,504.687 1392.5,501C 1398.69,497.328 1405.36,494.828 1412.5,493.5 Z"/></g>
</svg>
